<mxfile host="Electron" agent="Mozilla/5.0 (X11; Linux x86_64) AppleWebKit/537.36 (KHTML, like Gecko) draw.io/26.0.9 Chrome/128.0.6613.186 Electron/32.3.0 Safari/537.36" version="26.0.9">
  <diagram name="Page-1" id="6rNWh-JClVpRLGcofV5Y">
    <mxGraphModel dx="4965" dy="3590" grid="1" gridSize="10" guides="1" tooltips="1" connect="1" arrows="1" fold="1" page="1" pageScale="1" pageWidth="1200" pageHeight="1920" math="0" shadow="0">
      <root>
        <mxCell id="0" />
        <mxCell id="1" parent="0" />
        <mxCell id="H2N205aNI1bhLm6Z6igX-13" value="" style="group" parent="1" vertex="1" connectable="0">
          <mxGeometry x="530" y="310" width="165" height="160" as="geometry" />
        </mxCell>
        <mxCell id="H2N205aNI1bhLm6Z6igX-2" value="FullAdder" style="shape=trapezoid;perimeter=trapezoidPerimeter;whiteSpace=wrap;html=1;fixedSize=1;direction=south;rounded=1;" parent="H2N205aNI1bhLm6Z6igX-13" vertex="1">
          <mxGeometry x="40" width="85" height="160" as="geometry" />
        </mxCell>
        <mxCell id="H2N205aNI1bhLm6Z6igX-3" value="" style="endArrow=classic;html=1;rounded=0;" parent="H2N205aNI1bhLm6Z6igX-13" edge="1">
          <mxGeometry width="50" height="50" relative="1" as="geometry">
            <mxPoint y="30" as="sourcePoint" />
            <mxPoint x="40" y="30" as="targetPoint" />
          </mxGeometry>
        </mxCell>
        <mxCell id="H2N205aNI1bhLm6Z6igX-4" value="a" style="edgeLabel;html=1;align=center;verticalAlign=middle;resizable=0;points=[];" parent="H2N205aNI1bhLm6Z6igX-3" vertex="1" connectable="0">
          <mxGeometry x="-0.1391" relative="1" as="geometry">
            <mxPoint as="offset" />
          </mxGeometry>
        </mxCell>
        <mxCell id="H2N205aNI1bhLm6Z6igX-5" value="" style="endArrow=classic;html=1;rounded=0;" parent="H2N205aNI1bhLm6Z6igX-13" edge="1">
          <mxGeometry width="50" height="50" relative="1" as="geometry">
            <mxPoint y="79.80000000000001" as="sourcePoint" />
            <mxPoint x="40" y="79.80000000000001" as="targetPoint" />
          </mxGeometry>
        </mxCell>
        <mxCell id="H2N205aNI1bhLm6Z6igX-6" value="b" style="edgeLabel;html=1;align=center;verticalAlign=middle;resizable=0;points=[];" parent="H2N205aNI1bhLm6Z6igX-5" vertex="1" connectable="0">
          <mxGeometry x="-0.1391" relative="1" as="geometry">
            <mxPoint as="offset" />
          </mxGeometry>
        </mxCell>
        <mxCell id="H2N205aNI1bhLm6Z6igX-7" value="" style="endArrow=classic;html=1;rounded=0;" parent="H2N205aNI1bhLm6Z6igX-13" edge="1">
          <mxGeometry width="50" height="50" relative="1" as="geometry">
            <mxPoint x="125" y="50" as="sourcePoint" />
            <mxPoint x="165" y="50" as="targetPoint" />
          </mxGeometry>
        </mxCell>
        <mxCell id="H2N205aNI1bhLm6Z6igX-8" value="sum" style="edgeLabel;html=1;align=center;verticalAlign=middle;resizable=0;points=[];" parent="H2N205aNI1bhLm6Z6igX-7" vertex="1" connectable="0">
          <mxGeometry x="-0.1391" relative="1" as="geometry">
            <mxPoint as="offset" />
          </mxGeometry>
        </mxCell>
        <mxCell id="H2N205aNI1bhLm6Z6igX-9" value="" style="endArrow=classic;html=1;rounded=0;" parent="H2N205aNI1bhLm6Z6igX-13" edge="1">
          <mxGeometry width="50" height="50" relative="1" as="geometry">
            <mxPoint x="125" y="110" as="sourcePoint" />
            <mxPoint x="165" y="110" as="targetPoint" />
          </mxGeometry>
        </mxCell>
        <mxCell id="H2N205aNI1bhLm6Z6igX-10" value="carry" style="edgeLabel;html=1;align=center;verticalAlign=middle;resizable=0;points=[];" parent="H2N205aNI1bhLm6Z6igX-9" vertex="1" connectable="0">
          <mxGeometry x="-0.1391" relative="1" as="geometry">
            <mxPoint as="offset" />
          </mxGeometry>
        </mxCell>
        <mxCell id="H2N205aNI1bhLm6Z6igX-11" value="" style="endArrow=classic;html=1;rounded=0;" parent="H2N205aNI1bhLm6Z6igX-13" edge="1">
          <mxGeometry width="50" height="50" relative="1" as="geometry">
            <mxPoint y="130" as="sourcePoint" />
            <mxPoint x="40" y="130" as="targetPoint" />
          </mxGeometry>
        </mxCell>
        <mxCell id="H2N205aNI1bhLm6Z6igX-12" value="c" style="edgeLabel;html=1;align=center;verticalAlign=middle;resizable=0;points=[];" parent="H2N205aNI1bhLm6Z6igX-11" vertex="1" connectable="0">
          <mxGeometry x="-0.1391" relative="1" as="geometry">
            <mxPoint as="offset" />
          </mxGeometry>
        </mxCell>
        <mxCell id="H2N205aNI1bhLm6Z6igX-14" value="" style="endArrow=classic;html=1;rounded=0;" parent="1" edge="1">
          <mxGeometry width="50" height="50" relative="1" as="geometry">
            <mxPoint x="240" y="270" as="sourcePoint" />
            <mxPoint x="320" y="270" as="targetPoint" />
          </mxGeometry>
        </mxCell>
        <mxCell id="H2N205aNI1bhLm6Z6igX-15" value="a[0]" style="edgeLabel;html=1;align=center;verticalAlign=middle;resizable=0;points=[];fontSize=16;" parent="H2N205aNI1bhLm6Z6igX-14" vertex="1" connectable="0">
          <mxGeometry x="-0.0164" relative="1" as="geometry">
            <mxPoint as="offset" />
          </mxGeometry>
        </mxCell>
        <mxCell id="H2N205aNI1bhLm6Z6igX-16" value="" style="endArrow=classic;html=1;rounded=0;" parent="1" edge="1">
          <mxGeometry width="50" height="50" relative="1" as="geometry">
            <mxPoint x="240" y="350" as="sourcePoint" />
            <mxPoint x="320" y="350" as="targetPoint" />
          </mxGeometry>
        </mxCell>
        <mxCell id="H2N205aNI1bhLm6Z6igX-17" value="b[0]" style="edgeLabel;html=1;align=center;verticalAlign=middle;resizable=0;points=[];fontSize=16;" parent="H2N205aNI1bhLm6Z6igX-16" vertex="1" connectable="0">
          <mxGeometry x="-0.0164" relative="1" as="geometry">
            <mxPoint as="offset" />
          </mxGeometry>
        </mxCell>
        <mxCell id="H2N205aNI1bhLm6Z6igX-34" value="" style="group" parent="1" vertex="1" connectable="0">
          <mxGeometry x="360" y="230" width="170" height="160" as="geometry" />
        </mxCell>
        <mxCell id="H2N205aNI1bhLm6Z6igX-35" value="HalfAdder" style="shape=trapezoid;perimeter=trapezoidPerimeter;whiteSpace=wrap;html=1;fixedSize=1;direction=south;rounded=1;" parent="H2N205aNI1bhLm6Z6igX-34" vertex="1">
          <mxGeometry x="45" width="85" height="160" as="geometry" />
        </mxCell>
        <mxCell id="H2N205aNI1bhLm6Z6igX-36" value="" style="endArrow=classic;html=1;rounded=0;" parent="H2N205aNI1bhLm6Z6igX-34" edge="1">
          <mxGeometry width="50" height="50" relative="1" as="geometry">
            <mxPoint y="40" as="sourcePoint" />
            <mxPoint x="40" y="40" as="targetPoint" />
          </mxGeometry>
        </mxCell>
        <mxCell id="H2N205aNI1bhLm6Z6igX-37" value="a" style="edgeLabel;html=1;align=center;verticalAlign=middle;resizable=0;points=[];" parent="H2N205aNI1bhLm6Z6igX-36" vertex="1" connectable="0">
          <mxGeometry x="-0.1391" relative="1" as="geometry">
            <mxPoint as="offset" />
          </mxGeometry>
        </mxCell>
        <mxCell id="H2N205aNI1bhLm6Z6igX-38" value="" style="endArrow=classic;html=1;rounded=0;" parent="H2N205aNI1bhLm6Z6igX-34" edge="1">
          <mxGeometry width="50" height="50" relative="1" as="geometry">
            <mxPoint y="120" as="sourcePoint" />
            <mxPoint x="40" y="120" as="targetPoint" />
          </mxGeometry>
        </mxCell>
        <mxCell id="H2N205aNI1bhLm6Z6igX-39" value="b" style="edgeLabel;html=1;align=center;verticalAlign=middle;resizable=0;points=[];" parent="H2N205aNI1bhLm6Z6igX-38" vertex="1" connectable="0">
          <mxGeometry x="-0.1391" relative="1" as="geometry">
            <mxPoint as="offset" />
          </mxGeometry>
        </mxCell>
        <mxCell id="H2N205aNI1bhLm6Z6igX-40" value="" style="endArrow=classic;html=1;rounded=0;" parent="H2N205aNI1bhLm6Z6igX-34" edge="1">
          <mxGeometry width="50" height="50" relative="1" as="geometry">
            <mxPoint x="130" y="50" as="sourcePoint" />
            <mxPoint x="170" y="50" as="targetPoint" />
          </mxGeometry>
        </mxCell>
        <mxCell id="H2N205aNI1bhLm6Z6igX-41" value="sum" style="edgeLabel;html=1;align=center;verticalAlign=middle;resizable=0;points=[];" parent="H2N205aNI1bhLm6Z6igX-40" vertex="1" connectable="0">
          <mxGeometry x="-0.1391" relative="1" as="geometry">
            <mxPoint as="offset" />
          </mxGeometry>
        </mxCell>
        <mxCell id="H2N205aNI1bhLm6Z6igX-42" value="" style="endArrow=classic;html=1;rounded=0;" parent="H2N205aNI1bhLm6Z6igX-34" edge="1">
          <mxGeometry width="50" height="50" relative="1" as="geometry">
            <mxPoint x="130" y="110" as="sourcePoint" />
            <mxPoint x="170" y="110" as="targetPoint" />
          </mxGeometry>
        </mxCell>
        <mxCell id="H2N205aNI1bhLm6Z6igX-43" value="carry" style="edgeLabel;html=1;align=center;verticalAlign=middle;resizable=0;points=[];" parent="H2N205aNI1bhLm6Z6igX-42" vertex="1" connectable="0">
          <mxGeometry x="-0.1391" relative="1" as="geometry">
            <mxPoint as="offset" />
          </mxGeometry>
        </mxCell>
        <mxCell id="scjaqPzUyUW8MiZrHzj2-31" value="" style="endArrow=classic;html=1;rounded=0;" edge="1" parent="H2N205aNI1bhLm6Z6igX-34">
          <mxGeometry width="50" height="50" relative="1" as="geometry">
            <mxPoint x="-40" y="40" as="sourcePoint" />
            <mxPoint y="40" as="targetPoint" />
          </mxGeometry>
        </mxCell>
        <mxCell id="H2N205aNI1bhLm6Z6igX-44" value="" style="endArrow=classic;html=1;rounded=0;" parent="1" edge="1">
          <mxGeometry width="50" height="50" relative="1" as="geometry">
            <mxPoint x="3050" y="280" as="sourcePoint" />
            <mxPoint x="3130" y="280" as="targetPoint" />
          </mxGeometry>
        </mxCell>
        <mxCell id="H2N205aNI1bhLm6Z6igX-45" value="out[0]" style="edgeLabel;html=1;align=center;verticalAlign=middle;resizable=0;points=[];fontSize=16;" parent="H2N205aNI1bhLm6Z6igX-44" vertex="1" connectable="0">
          <mxGeometry x="-0.0164" relative="1" as="geometry">
            <mxPoint as="offset" />
          </mxGeometry>
        </mxCell>
        <mxCell id="H2N205aNI1bhLm6Z6igX-47" value="" style="group" parent="1" vertex="1" connectable="0">
          <mxGeometry x="700" y="390" width="165" height="160" as="geometry" />
        </mxCell>
        <mxCell id="H2N205aNI1bhLm6Z6igX-48" value="FullAdder" style="shape=trapezoid;perimeter=trapezoidPerimeter;whiteSpace=wrap;html=1;fixedSize=1;direction=south;rounded=1;" parent="H2N205aNI1bhLm6Z6igX-47" vertex="1">
          <mxGeometry x="40" width="85" height="160" as="geometry" />
        </mxCell>
        <mxCell id="H2N205aNI1bhLm6Z6igX-49" value="" style="endArrow=classic;html=1;rounded=0;" parent="H2N205aNI1bhLm6Z6igX-47" edge="1">
          <mxGeometry width="50" height="50" relative="1" as="geometry">
            <mxPoint y="30" as="sourcePoint" />
            <mxPoint x="40" y="30" as="targetPoint" />
          </mxGeometry>
        </mxCell>
        <mxCell id="H2N205aNI1bhLm6Z6igX-50" value="a" style="edgeLabel;html=1;align=center;verticalAlign=middle;resizable=0;points=[];" parent="H2N205aNI1bhLm6Z6igX-49" vertex="1" connectable="0">
          <mxGeometry x="-0.1391" relative="1" as="geometry">
            <mxPoint as="offset" />
          </mxGeometry>
        </mxCell>
        <mxCell id="H2N205aNI1bhLm6Z6igX-51" value="" style="endArrow=classic;html=1;rounded=0;" parent="H2N205aNI1bhLm6Z6igX-47" edge="1">
          <mxGeometry width="50" height="50" relative="1" as="geometry">
            <mxPoint y="79.80000000000001" as="sourcePoint" />
            <mxPoint x="40" y="79.80000000000001" as="targetPoint" />
          </mxGeometry>
        </mxCell>
        <mxCell id="H2N205aNI1bhLm6Z6igX-52" value="b" style="edgeLabel;html=1;align=center;verticalAlign=middle;resizable=0;points=[];" parent="H2N205aNI1bhLm6Z6igX-51" vertex="1" connectable="0">
          <mxGeometry x="-0.1391" relative="1" as="geometry">
            <mxPoint as="offset" />
          </mxGeometry>
        </mxCell>
        <mxCell id="H2N205aNI1bhLm6Z6igX-53" value="" style="endArrow=classic;html=1;rounded=0;" parent="H2N205aNI1bhLm6Z6igX-47" edge="1">
          <mxGeometry width="50" height="50" relative="1" as="geometry">
            <mxPoint x="125" y="50" as="sourcePoint" />
            <mxPoint x="165" y="50" as="targetPoint" />
          </mxGeometry>
        </mxCell>
        <mxCell id="H2N205aNI1bhLm6Z6igX-54" value="sum" style="edgeLabel;html=1;align=center;verticalAlign=middle;resizable=0;points=[];" parent="H2N205aNI1bhLm6Z6igX-53" vertex="1" connectable="0">
          <mxGeometry x="-0.1391" relative="1" as="geometry">
            <mxPoint as="offset" />
          </mxGeometry>
        </mxCell>
        <mxCell id="H2N205aNI1bhLm6Z6igX-55" value="" style="endArrow=classic;html=1;rounded=0;" parent="H2N205aNI1bhLm6Z6igX-47" edge="1">
          <mxGeometry width="50" height="50" relative="1" as="geometry">
            <mxPoint x="125" y="110" as="sourcePoint" />
            <mxPoint x="165" y="110" as="targetPoint" />
          </mxGeometry>
        </mxCell>
        <mxCell id="H2N205aNI1bhLm6Z6igX-56" value="carry" style="edgeLabel;html=1;align=center;verticalAlign=middle;resizable=0;points=[];" parent="H2N205aNI1bhLm6Z6igX-55" vertex="1" connectable="0">
          <mxGeometry x="-0.1391" relative="1" as="geometry">
            <mxPoint as="offset" />
          </mxGeometry>
        </mxCell>
        <mxCell id="H2N205aNI1bhLm6Z6igX-57" value="" style="endArrow=classic;html=1;rounded=0;" parent="H2N205aNI1bhLm6Z6igX-47" edge="1">
          <mxGeometry width="50" height="50" relative="1" as="geometry">
            <mxPoint y="130" as="sourcePoint" />
            <mxPoint x="40" y="130" as="targetPoint" />
          </mxGeometry>
        </mxCell>
        <mxCell id="H2N205aNI1bhLm6Z6igX-58" value="c" style="edgeLabel;html=1;align=center;verticalAlign=middle;resizable=0;points=[];" parent="H2N205aNI1bhLm6Z6igX-57" vertex="1" connectable="0">
          <mxGeometry x="-0.1391" relative="1" as="geometry">
            <mxPoint as="offset" />
          </mxGeometry>
        </mxCell>
        <mxCell id="H2N205aNI1bhLm6Z6igX-59" value="" style="group" parent="1" vertex="1" connectable="0">
          <mxGeometry x="870" y="470" width="165" height="160" as="geometry" />
        </mxCell>
        <mxCell id="H2N205aNI1bhLm6Z6igX-60" value="FullAdder" style="shape=trapezoid;perimeter=trapezoidPerimeter;whiteSpace=wrap;html=1;fixedSize=1;direction=south;rounded=1;" parent="H2N205aNI1bhLm6Z6igX-59" vertex="1">
          <mxGeometry x="40" width="85" height="160" as="geometry" />
        </mxCell>
        <mxCell id="H2N205aNI1bhLm6Z6igX-61" value="" style="endArrow=classic;html=1;rounded=0;" parent="H2N205aNI1bhLm6Z6igX-59" edge="1">
          <mxGeometry width="50" height="50" relative="1" as="geometry">
            <mxPoint y="30" as="sourcePoint" />
            <mxPoint x="40" y="30" as="targetPoint" />
          </mxGeometry>
        </mxCell>
        <mxCell id="H2N205aNI1bhLm6Z6igX-62" value="a" style="edgeLabel;html=1;align=center;verticalAlign=middle;resizable=0;points=[];" parent="H2N205aNI1bhLm6Z6igX-61" vertex="1" connectable="0">
          <mxGeometry x="-0.1391" relative="1" as="geometry">
            <mxPoint as="offset" />
          </mxGeometry>
        </mxCell>
        <mxCell id="H2N205aNI1bhLm6Z6igX-63" value="" style="endArrow=classic;html=1;rounded=0;" parent="H2N205aNI1bhLm6Z6igX-59" edge="1">
          <mxGeometry width="50" height="50" relative="1" as="geometry">
            <mxPoint y="79.80000000000001" as="sourcePoint" />
            <mxPoint x="40" y="79.80000000000001" as="targetPoint" />
          </mxGeometry>
        </mxCell>
        <mxCell id="H2N205aNI1bhLm6Z6igX-64" value="b" style="edgeLabel;html=1;align=center;verticalAlign=middle;resizable=0;points=[];" parent="H2N205aNI1bhLm6Z6igX-63" vertex="1" connectable="0">
          <mxGeometry x="-0.1391" relative="1" as="geometry">
            <mxPoint as="offset" />
          </mxGeometry>
        </mxCell>
        <mxCell id="H2N205aNI1bhLm6Z6igX-65" value="" style="endArrow=classic;html=1;rounded=0;" parent="H2N205aNI1bhLm6Z6igX-59" edge="1">
          <mxGeometry width="50" height="50" relative="1" as="geometry">
            <mxPoint x="125" y="50" as="sourcePoint" />
            <mxPoint x="165" y="50" as="targetPoint" />
          </mxGeometry>
        </mxCell>
        <mxCell id="H2N205aNI1bhLm6Z6igX-66" value="sum" style="edgeLabel;html=1;align=center;verticalAlign=middle;resizable=0;points=[];" parent="H2N205aNI1bhLm6Z6igX-65" vertex="1" connectable="0">
          <mxGeometry x="-0.1391" relative="1" as="geometry">
            <mxPoint as="offset" />
          </mxGeometry>
        </mxCell>
        <mxCell id="H2N205aNI1bhLm6Z6igX-67" value="" style="endArrow=classic;html=1;rounded=0;" parent="H2N205aNI1bhLm6Z6igX-59" edge="1">
          <mxGeometry width="50" height="50" relative="1" as="geometry">
            <mxPoint x="125" y="110" as="sourcePoint" />
            <mxPoint x="165" y="110" as="targetPoint" />
          </mxGeometry>
        </mxCell>
        <mxCell id="H2N205aNI1bhLm6Z6igX-68" value="carry" style="edgeLabel;html=1;align=center;verticalAlign=middle;resizable=0;points=[];" parent="H2N205aNI1bhLm6Z6igX-67" vertex="1" connectable="0">
          <mxGeometry x="-0.1391" relative="1" as="geometry">
            <mxPoint as="offset" />
          </mxGeometry>
        </mxCell>
        <mxCell id="H2N205aNI1bhLm6Z6igX-69" value="" style="endArrow=classic;html=1;rounded=0;" parent="H2N205aNI1bhLm6Z6igX-59" edge="1">
          <mxGeometry width="50" height="50" relative="1" as="geometry">
            <mxPoint y="130" as="sourcePoint" />
            <mxPoint x="40" y="130" as="targetPoint" />
          </mxGeometry>
        </mxCell>
        <mxCell id="H2N205aNI1bhLm6Z6igX-70" value="c" style="edgeLabel;html=1;align=center;verticalAlign=middle;resizable=0;points=[];" parent="H2N205aNI1bhLm6Z6igX-69" vertex="1" connectable="0">
          <mxGeometry x="-0.1391" relative="1" as="geometry">
            <mxPoint as="offset" />
          </mxGeometry>
        </mxCell>
        <mxCell id="H2N205aNI1bhLm6Z6igX-71" value="" style="group" parent="1" vertex="1" connectable="0">
          <mxGeometry x="1035" y="550" width="165" height="160" as="geometry" />
        </mxCell>
        <mxCell id="H2N205aNI1bhLm6Z6igX-72" value="FullAdder" style="shape=trapezoid;perimeter=trapezoidPerimeter;whiteSpace=wrap;html=1;fixedSize=1;direction=south;rounded=1;" parent="H2N205aNI1bhLm6Z6igX-71" vertex="1">
          <mxGeometry x="40" width="85" height="160" as="geometry" />
        </mxCell>
        <mxCell id="H2N205aNI1bhLm6Z6igX-73" value="" style="endArrow=classic;html=1;rounded=0;" parent="H2N205aNI1bhLm6Z6igX-71" edge="1">
          <mxGeometry width="50" height="50" relative="1" as="geometry">
            <mxPoint y="30" as="sourcePoint" />
            <mxPoint x="40" y="30" as="targetPoint" />
          </mxGeometry>
        </mxCell>
        <mxCell id="H2N205aNI1bhLm6Z6igX-74" value="a" style="edgeLabel;html=1;align=center;verticalAlign=middle;resizable=0;points=[];" parent="H2N205aNI1bhLm6Z6igX-73" vertex="1" connectable="0">
          <mxGeometry x="-0.1391" relative="1" as="geometry">
            <mxPoint as="offset" />
          </mxGeometry>
        </mxCell>
        <mxCell id="H2N205aNI1bhLm6Z6igX-75" value="" style="endArrow=classic;html=1;rounded=0;" parent="H2N205aNI1bhLm6Z6igX-71" edge="1">
          <mxGeometry width="50" height="50" relative="1" as="geometry">
            <mxPoint y="79.80000000000001" as="sourcePoint" />
            <mxPoint x="40" y="79.80000000000001" as="targetPoint" />
          </mxGeometry>
        </mxCell>
        <mxCell id="H2N205aNI1bhLm6Z6igX-76" value="b" style="edgeLabel;html=1;align=center;verticalAlign=middle;resizable=0;points=[];" parent="H2N205aNI1bhLm6Z6igX-75" vertex="1" connectable="0">
          <mxGeometry x="-0.1391" relative="1" as="geometry">
            <mxPoint as="offset" />
          </mxGeometry>
        </mxCell>
        <mxCell id="H2N205aNI1bhLm6Z6igX-77" value="" style="endArrow=classic;html=1;rounded=0;" parent="H2N205aNI1bhLm6Z6igX-71" edge="1">
          <mxGeometry width="50" height="50" relative="1" as="geometry">
            <mxPoint x="125" y="50" as="sourcePoint" />
            <mxPoint x="165" y="50" as="targetPoint" />
          </mxGeometry>
        </mxCell>
        <mxCell id="H2N205aNI1bhLm6Z6igX-78" value="sum" style="edgeLabel;html=1;align=center;verticalAlign=middle;resizable=0;points=[];" parent="H2N205aNI1bhLm6Z6igX-77" vertex="1" connectable="0">
          <mxGeometry x="-0.1391" relative="1" as="geometry">
            <mxPoint as="offset" />
          </mxGeometry>
        </mxCell>
        <mxCell id="H2N205aNI1bhLm6Z6igX-79" value="" style="endArrow=classic;html=1;rounded=0;" parent="H2N205aNI1bhLm6Z6igX-71" edge="1">
          <mxGeometry width="50" height="50" relative="1" as="geometry">
            <mxPoint x="125" y="110" as="sourcePoint" />
            <mxPoint x="165" y="110" as="targetPoint" />
          </mxGeometry>
        </mxCell>
        <mxCell id="H2N205aNI1bhLm6Z6igX-80" value="carry" style="edgeLabel;html=1;align=center;verticalAlign=middle;resizable=0;points=[];" parent="H2N205aNI1bhLm6Z6igX-79" vertex="1" connectable="0">
          <mxGeometry x="-0.1391" relative="1" as="geometry">
            <mxPoint as="offset" />
          </mxGeometry>
        </mxCell>
        <mxCell id="H2N205aNI1bhLm6Z6igX-81" value="" style="endArrow=classic;html=1;rounded=0;" parent="H2N205aNI1bhLm6Z6igX-71" edge="1">
          <mxGeometry width="50" height="50" relative="1" as="geometry">
            <mxPoint y="130" as="sourcePoint" />
            <mxPoint x="40" y="130" as="targetPoint" />
          </mxGeometry>
        </mxCell>
        <mxCell id="H2N205aNI1bhLm6Z6igX-82" value="c" style="edgeLabel;html=1;align=center;verticalAlign=middle;resizable=0;points=[];" parent="H2N205aNI1bhLm6Z6igX-81" vertex="1" connectable="0">
          <mxGeometry x="-0.1391" relative="1" as="geometry">
            <mxPoint as="offset" />
          </mxGeometry>
        </mxCell>
        <mxCell id="H2N205aNI1bhLm6Z6igX-83" value="" style="group" parent="1" vertex="1" connectable="0">
          <mxGeometry x="1200" y="630" width="165" height="160" as="geometry" />
        </mxCell>
        <mxCell id="H2N205aNI1bhLm6Z6igX-84" value="FullAdder" style="shape=trapezoid;perimeter=trapezoidPerimeter;whiteSpace=wrap;html=1;fixedSize=1;direction=south;rounded=1;" parent="H2N205aNI1bhLm6Z6igX-83" vertex="1">
          <mxGeometry x="40" width="85" height="160" as="geometry" />
        </mxCell>
        <mxCell id="H2N205aNI1bhLm6Z6igX-85" value="" style="endArrow=classic;html=1;rounded=0;" parent="H2N205aNI1bhLm6Z6igX-83" edge="1">
          <mxGeometry width="50" height="50" relative="1" as="geometry">
            <mxPoint y="30" as="sourcePoint" />
            <mxPoint x="40" y="30" as="targetPoint" />
          </mxGeometry>
        </mxCell>
        <mxCell id="H2N205aNI1bhLm6Z6igX-86" value="a" style="edgeLabel;html=1;align=center;verticalAlign=middle;resizable=0;points=[];" parent="H2N205aNI1bhLm6Z6igX-85" vertex="1" connectable="0">
          <mxGeometry x="-0.1391" relative="1" as="geometry">
            <mxPoint as="offset" />
          </mxGeometry>
        </mxCell>
        <mxCell id="H2N205aNI1bhLm6Z6igX-87" value="" style="endArrow=classic;html=1;rounded=0;" parent="H2N205aNI1bhLm6Z6igX-83" edge="1">
          <mxGeometry width="50" height="50" relative="1" as="geometry">
            <mxPoint y="79.80000000000001" as="sourcePoint" />
            <mxPoint x="40" y="79.80000000000001" as="targetPoint" />
          </mxGeometry>
        </mxCell>
        <mxCell id="H2N205aNI1bhLm6Z6igX-88" value="b" style="edgeLabel;html=1;align=center;verticalAlign=middle;resizable=0;points=[];" parent="H2N205aNI1bhLm6Z6igX-87" vertex="1" connectable="0">
          <mxGeometry x="-0.1391" relative="1" as="geometry">
            <mxPoint as="offset" />
          </mxGeometry>
        </mxCell>
        <mxCell id="H2N205aNI1bhLm6Z6igX-89" value="" style="endArrow=classic;html=1;rounded=0;" parent="H2N205aNI1bhLm6Z6igX-83" edge="1">
          <mxGeometry width="50" height="50" relative="1" as="geometry">
            <mxPoint x="125" y="50" as="sourcePoint" />
            <mxPoint x="165" y="50" as="targetPoint" />
          </mxGeometry>
        </mxCell>
        <mxCell id="H2N205aNI1bhLm6Z6igX-90" value="sum" style="edgeLabel;html=1;align=center;verticalAlign=middle;resizable=0;points=[];" parent="H2N205aNI1bhLm6Z6igX-89" vertex="1" connectable="0">
          <mxGeometry x="-0.1391" relative="1" as="geometry">
            <mxPoint as="offset" />
          </mxGeometry>
        </mxCell>
        <mxCell id="H2N205aNI1bhLm6Z6igX-91" value="" style="endArrow=classic;html=1;rounded=0;" parent="H2N205aNI1bhLm6Z6igX-83" edge="1">
          <mxGeometry width="50" height="50" relative="1" as="geometry">
            <mxPoint x="125" y="110" as="sourcePoint" />
            <mxPoint x="165" y="110" as="targetPoint" />
          </mxGeometry>
        </mxCell>
        <mxCell id="H2N205aNI1bhLm6Z6igX-92" value="carry" style="edgeLabel;html=1;align=center;verticalAlign=middle;resizable=0;points=[];" parent="H2N205aNI1bhLm6Z6igX-91" vertex="1" connectable="0">
          <mxGeometry x="-0.1391" relative="1" as="geometry">
            <mxPoint as="offset" />
          </mxGeometry>
        </mxCell>
        <mxCell id="H2N205aNI1bhLm6Z6igX-93" value="" style="endArrow=classic;html=1;rounded=0;" parent="H2N205aNI1bhLm6Z6igX-83" edge="1">
          <mxGeometry width="50" height="50" relative="1" as="geometry">
            <mxPoint y="130" as="sourcePoint" />
            <mxPoint x="40" y="130" as="targetPoint" />
          </mxGeometry>
        </mxCell>
        <mxCell id="H2N205aNI1bhLm6Z6igX-94" value="c" style="edgeLabel;html=1;align=center;verticalAlign=middle;resizable=0;points=[];" parent="H2N205aNI1bhLm6Z6igX-93" vertex="1" connectable="0">
          <mxGeometry x="-0.1391" relative="1" as="geometry">
            <mxPoint as="offset" />
          </mxGeometry>
        </mxCell>
        <mxCell id="H2N205aNI1bhLm6Z6igX-95" value="" style="group" parent="1" vertex="1" connectable="0">
          <mxGeometry x="1360" y="710" width="165" height="160" as="geometry" />
        </mxCell>
        <mxCell id="H2N205aNI1bhLm6Z6igX-96" value="FullAdder" style="shape=trapezoid;perimeter=trapezoidPerimeter;whiteSpace=wrap;html=1;fixedSize=1;direction=south;rounded=1;" parent="H2N205aNI1bhLm6Z6igX-95" vertex="1">
          <mxGeometry x="40" width="85" height="160" as="geometry" />
        </mxCell>
        <mxCell id="H2N205aNI1bhLm6Z6igX-97" value="" style="endArrow=classic;html=1;rounded=0;" parent="H2N205aNI1bhLm6Z6igX-95" edge="1">
          <mxGeometry width="50" height="50" relative="1" as="geometry">
            <mxPoint y="30" as="sourcePoint" />
            <mxPoint x="40" y="30" as="targetPoint" />
          </mxGeometry>
        </mxCell>
        <mxCell id="H2N205aNI1bhLm6Z6igX-98" value="a" style="edgeLabel;html=1;align=center;verticalAlign=middle;resizable=0;points=[];" parent="H2N205aNI1bhLm6Z6igX-97" vertex="1" connectable="0">
          <mxGeometry x="-0.1391" relative="1" as="geometry">
            <mxPoint as="offset" />
          </mxGeometry>
        </mxCell>
        <mxCell id="H2N205aNI1bhLm6Z6igX-99" value="" style="endArrow=classic;html=1;rounded=0;" parent="H2N205aNI1bhLm6Z6igX-95" edge="1">
          <mxGeometry width="50" height="50" relative="1" as="geometry">
            <mxPoint y="79.80000000000001" as="sourcePoint" />
            <mxPoint x="40" y="79.80000000000001" as="targetPoint" />
          </mxGeometry>
        </mxCell>
        <mxCell id="H2N205aNI1bhLm6Z6igX-100" value="b" style="edgeLabel;html=1;align=center;verticalAlign=middle;resizable=0;points=[];" parent="H2N205aNI1bhLm6Z6igX-99" vertex="1" connectable="0">
          <mxGeometry x="-0.1391" relative="1" as="geometry">
            <mxPoint as="offset" />
          </mxGeometry>
        </mxCell>
        <mxCell id="H2N205aNI1bhLm6Z6igX-101" value="" style="endArrow=classic;html=1;rounded=0;" parent="H2N205aNI1bhLm6Z6igX-95" edge="1">
          <mxGeometry width="50" height="50" relative="1" as="geometry">
            <mxPoint x="125" y="50" as="sourcePoint" />
            <mxPoint x="165" y="50" as="targetPoint" />
          </mxGeometry>
        </mxCell>
        <mxCell id="H2N205aNI1bhLm6Z6igX-102" value="sum" style="edgeLabel;html=1;align=center;verticalAlign=middle;resizable=0;points=[];" parent="H2N205aNI1bhLm6Z6igX-101" vertex="1" connectable="0">
          <mxGeometry x="-0.1391" relative="1" as="geometry">
            <mxPoint as="offset" />
          </mxGeometry>
        </mxCell>
        <mxCell id="H2N205aNI1bhLm6Z6igX-103" value="" style="endArrow=classic;html=1;rounded=0;" parent="H2N205aNI1bhLm6Z6igX-95" edge="1">
          <mxGeometry width="50" height="50" relative="1" as="geometry">
            <mxPoint x="125" y="110" as="sourcePoint" />
            <mxPoint x="165" y="110" as="targetPoint" />
          </mxGeometry>
        </mxCell>
        <mxCell id="H2N205aNI1bhLm6Z6igX-104" value="carry" style="edgeLabel;html=1;align=center;verticalAlign=middle;resizable=0;points=[];" parent="H2N205aNI1bhLm6Z6igX-103" vertex="1" connectable="0">
          <mxGeometry x="-0.1391" relative="1" as="geometry">
            <mxPoint as="offset" />
          </mxGeometry>
        </mxCell>
        <mxCell id="H2N205aNI1bhLm6Z6igX-105" value="" style="endArrow=classic;html=1;rounded=0;" parent="H2N205aNI1bhLm6Z6igX-95" edge="1">
          <mxGeometry width="50" height="50" relative="1" as="geometry">
            <mxPoint y="130" as="sourcePoint" />
            <mxPoint x="40" y="130" as="targetPoint" />
          </mxGeometry>
        </mxCell>
        <mxCell id="H2N205aNI1bhLm6Z6igX-106" value="c" style="edgeLabel;html=1;align=center;verticalAlign=middle;resizable=0;points=[];" parent="H2N205aNI1bhLm6Z6igX-105" vertex="1" connectable="0">
          <mxGeometry x="-0.1391" relative="1" as="geometry">
            <mxPoint as="offset" />
          </mxGeometry>
        </mxCell>
        <mxCell id="H2N205aNI1bhLm6Z6igX-108" value="" style="group" parent="1" vertex="1" connectable="0">
          <mxGeometry x="1520" y="790" width="165" height="160" as="geometry" />
        </mxCell>
        <mxCell id="H2N205aNI1bhLm6Z6igX-109" value="FullAdder" style="shape=trapezoid;perimeter=trapezoidPerimeter;whiteSpace=wrap;html=1;fixedSize=1;direction=south;rounded=1;" parent="H2N205aNI1bhLm6Z6igX-108" vertex="1">
          <mxGeometry x="40" width="85" height="160" as="geometry" />
        </mxCell>
        <mxCell id="H2N205aNI1bhLm6Z6igX-110" value="" style="endArrow=classic;html=1;rounded=0;" parent="H2N205aNI1bhLm6Z6igX-108" edge="1">
          <mxGeometry width="50" height="50" relative="1" as="geometry">
            <mxPoint y="30" as="sourcePoint" />
            <mxPoint x="40" y="30" as="targetPoint" />
          </mxGeometry>
        </mxCell>
        <mxCell id="H2N205aNI1bhLm6Z6igX-111" value="a" style="edgeLabel;html=1;align=center;verticalAlign=middle;resizable=0;points=[];" parent="H2N205aNI1bhLm6Z6igX-110" vertex="1" connectable="0">
          <mxGeometry x="-0.1391" relative="1" as="geometry">
            <mxPoint as="offset" />
          </mxGeometry>
        </mxCell>
        <mxCell id="H2N205aNI1bhLm6Z6igX-112" value="" style="endArrow=classic;html=1;rounded=0;" parent="H2N205aNI1bhLm6Z6igX-108" edge="1">
          <mxGeometry width="50" height="50" relative="1" as="geometry">
            <mxPoint y="79.80000000000001" as="sourcePoint" />
            <mxPoint x="40" y="79.80000000000001" as="targetPoint" />
          </mxGeometry>
        </mxCell>
        <mxCell id="H2N205aNI1bhLm6Z6igX-113" value="b" style="edgeLabel;html=1;align=center;verticalAlign=middle;resizable=0;points=[];" parent="H2N205aNI1bhLm6Z6igX-112" vertex="1" connectable="0">
          <mxGeometry x="-0.1391" relative="1" as="geometry">
            <mxPoint as="offset" />
          </mxGeometry>
        </mxCell>
        <mxCell id="H2N205aNI1bhLm6Z6igX-114" value="" style="endArrow=classic;html=1;rounded=0;" parent="H2N205aNI1bhLm6Z6igX-108" edge="1">
          <mxGeometry width="50" height="50" relative="1" as="geometry">
            <mxPoint x="125" y="50" as="sourcePoint" />
            <mxPoint x="165" y="50" as="targetPoint" />
          </mxGeometry>
        </mxCell>
        <mxCell id="H2N205aNI1bhLm6Z6igX-115" value="sum" style="edgeLabel;html=1;align=center;verticalAlign=middle;resizable=0;points=[];" parent="H2N205aNI1bhLm6Z6igX-114" vertex="1" connectable="0">
          <mxGeometry x="-0.1391" relative="1" as="geometry">
            <mxPoint as="offset" />
          </mxGeometry>
        </mxCell>
        <mxCell id="H2N205aNI1bhLm6Z6igX-116" value="" style="endArrow=classic;html=1;rounded=0;" parent="H2N205aNI1bhLm6Z6igX-108" edge="1">
          <mxGeometry width="50" height="50" relative="1" as="geometry">
            <mxPoint x="125" y="110" as="sourcePoint" />
            <mxPoint x="165" y="110" as="targetPoint" />
          </mxGeometry>
        </mxCell>
        <mxCell id="H2N205aNI1bhLm6Z6igX-117" value="carry" style="edgeLabel;html=1;align=center;verticalAlign=middle;resizable=0;points=[];" parent="H2N205aNI1bhLm6Z6igX-116" vertex="1" connectable="0">
          <mxGeometry x="-0.1391" relative="1" as="geometry">
            <mxPoint as="offset" />
          </mxGeometry>
        </mxCell>
        <mxCell id="H2N205aNI1bhLm6Z6igX-118" value="" style="endArrow=classic;html=1;rounded=0;" parent="H2N205aNI1bhLm6Z6igX-108" edge="1">
          <mxGeometry width="50" height="50" relative="1" as="geometry">
            <mxPoint y="130" as="sourcePoint" />
            <mxPoint x="40" y="130" as="targetPoint" />
          </mxGeometry>
        </mxCell>
        <mxCell id="H2N205aNI1bhLm6Z6igX-119" value="c" style="edgeLabel;html=1;align=center;verticalAlign=middle;resizable=0;points=[];" parent="H2N205aNI1bhLm6Z6igX-118" vertex="1" connectable="0">
          <mxGeometry x="-0.1391" relative="1" as="geometry">
            <mxPoint as="offset" />
          </mxGeometry>
        </mxCell>
        <mxCell id="H2N205aNI1bhLm6Z6igX-120" value="" style="group" parent="1" vertex="1" connectable="0">
          <mxGeometry x="1680" y="870" width="165" height="160" as="geometry" />
        </mxCell>
        <mxCell id="H2N205aNI1bhLm6Z6igX-121" value="FullAdder" style="shape=trapezoid;perimeter=trapezoidPerimeter;whiteSpace=wrap;html=1;fixedSize=1;direction=south;rounded=1;" parent="H2N205aNI1bhLm6Z6igX-120" vertex="1">
          <mxGeometry x="40" width="85" height="160" as="geometry" />
        </mxCell>
        <mxCell id="H2N205aNI1bhLm6Z6igX-122" value="" style="endArrow=classic;html=1;rounded=0;" parent="H2N205aNI1bhLm6Z6igX-120" edge="1">
          <mxGeometry width="50" height="50" relative="1" as="geometry">
            <mxPoint y="30" as="sourcePoint" />
            <mxPoint x="40" y="30" as="targetPoint" />
          </mxGeometry>
        </mxCell>
        <mxCell id="H2N205aNI1bhLm6Z6igX-123" value="a" style="edgeLabel;html=1;align=center;verticalAlign=middle;resizable=0;points=[];" parent="H2N205aNI1bhLm6Z6igX-122" vertex="1" connectable="0">
          <mxGeometry x="-0.1391" relative="1" as="geometry">
            <mxPoint as="offset" />
          </mxGeometry>
        </mxCell>
        <mxCell id="H2N205aNI1bhLm6Z6igX-124" value="" style="endArrow=classic;html=1;rounded=0;" parent="H2N205aNI1bhLm6Z6igX-120" edge="1">
          <mxGeometry width="50" height="50" relative="1" as="geometry">
            <mxPoint y="79.80000000000001" as="sourcePoint" />
            <mxPoint x="40" y="79.80000000000001" as="targetPoint" />
          </mxGeometry>
        </mxCell>
        <mxCell id="H2N205aNI1bhLm6Z6igX-125" value="b" style="edgeLabel;html=1;align=center;verticalAlign=middle;resizable=0;points=[];" parent="H2N205aNI1bhLm6Z6igX-124" vertex="1" connectable="0">
          <mxGeometry x="-0.1391" relative="1" as="geometry">
            <mxPoint as="offset" />
          </mxGeometry>
        </mxCell>
        <mxCell id="H2N205aNI1bhLm6Z6igX-126" value="" style="endArrow=classic;html=1;rounded=0;" parent="H2N205aNI1bhLm6Z6igX-120" edge="1">
          <mxGeometry width="50" height="50" relative="1" as="geometry">
            <mxPoint x="125" y="50" as="sourcePoint" />
            <mxPoint x="165" y="50" as="targetPoint" />
          </mxGeometry>
        </mxCell>
        <mxCell id="H2N205aNI1bhLm6Z6igX-127" value="sum" style="edgeLabel;html=1;align=center;verticalAlign=middle;resizable=0;points=[];" parent="H2N205aNI1bhLm6Z6igX-126" vertex="1" connectable="0">
          <mxGeometry x="-0.1391" relative="1" as="geometry">
            <mxPoint as="offset" />
          </mxGeometry>
        </mxCell>
        <mxCell id="H2N205aNI1bhLm6Z6igX-128" value="" style="endArrow=classic;html=1;rounded=0;" parent="H2N205aNI1bhLm6Z6igX-120" edge="1">
          <mxGeometry width="50" height="50" relative="1" as="geometry">
            <mxPoint x="125" y="110" as="sourcePoint" />
            <mxPoint x="165" y="110" as="targetPoint" />
          </mxGeometry>
        </mxCell>
        <mxCell id="H2N205aNI1bhLm6Z6igX-129" value="carry" style="edgeLabel;html=1;align=center;verticalAlign=middle;resizable=0;points=[];" parent="H2N205aNI1bhLm6Z6igX-128" vertex="1" connectable="0">
          <mxGeometry x="-0.1391" relative="1" as="geometry">
            <mxPoint as="offset" />
          </mxGeometry>
        </mxCell>
        <mxCell id="H2N205aNI1bhLm6Z6igX-130" value="" style="endArrow=classic;html=1;rounded=0;" parent="H2N205aNI1bhLm6Z6igX-120" edge="1">
          <mxGeometry width="50" height="50" relative="1" as="geometry">
            <mxPoint y="130" as="sourcePoint" />
            <mxPoint x="40" y="130" as="targetPoint" />
          </mxGeometry>
        </mxCell>
        <mxCell id="H2N205aNI1bhLm6Z6igX-131" value="c" style="edgeLabel;html=1;align=center;verticalAlign=middle;resizable=0;points=[];" parent="H2N205aNI1bhLm6Z6igX-130" vertex="1" connectable="0">
          <mxGeometry x="-0.1391" relative="1" as="geometry">
            <mxPoint as="offset" />
          </mxGeometry>
        </mxCell>
        <mxCell id="H2N205aNI1bhLm6Z6igX-132" value="" style="group" parent="1" vertex="1" connectable="0">
          <mxGeometry x="1850" y="950" width="165" height="160" as="geometry" />
        </mxCell>
        <mxCell id="H2N205aNI1bhLm6Z6igX-133" value="FullAdder" style="shape=trapezoid;perimeter=trapezoidPerimeter;whiteSpace=wrap;html=1;fixedSize=1;direction=south;rounded=1;" parent="H2N205aNI1bhLm6Z6igX-132" vertex="1">
          <mxGeometry x="40" width="85" height="160" as="geometry" />
        </mxCell>
        <mxCell id="H2N205aNI1bhLm6Z6igX-134" value="" style="endArrow=classic;html=1;rounded=0;" parent="H2N205aNI1bhLm6Z6igX-132" edge="1">
          <mxGeometry width="50" height="50" relative="1" as="geometry">
            <mxPoint y="30" as="sourcePoint" />
            <mxPoint x="40" y="30" as="targetPoint" />
          </mxGeometry>
        </mxCell>
        <mxCell id="H2N205aNI1bhLm6Z6igX-135" value="a" style="edgeLabel;html=1;align=center;verticalAlign=middle;resizable=0;points=[];" parent="H2N205aNI1bhLm6Z6igX-134" vertex="1" connectable="0">
          <mxGeometry x="-0.1391" relative="1" as="geometry">
            <mxPoint as="offset" />
          </mxGeometry>
        </mxCell>
        <mxCell id="H2N205aNI1bhLm6Z6igX-136" value="" style="endArrow=classic;html=1;rounded=0;" parent="H2N205aNI1bhLm6Z6igX-132" edge="1">
          <mxGeometry width="50" height="50" relative="1" as="geometry">
            <mxPoint y="79.80000000000001" as="sourcePoint" />
            <mxPoint x="40" y="79.80000000000001" as="targetPoint" />
          </mxGeometry>
        </mxCell>
        <mxCell id="H2N205aNI1bhLm6Z6igX-137" value="b" style="edgeLabel;html=1;align=center;verticalAlign=middle;resizable=0;points=[];" parent="H2N205aNI1bhLm6Z6igX-136" vertex="1" connectable="0">
          <mxGeometry x="-0.1391" relative="1" as="geometry">
            <mxPoint as="offset" />
          </mxGeometry>
        </mxCell>
        <mxCell id="H2N205aNI1bhLm6Z6igX-138" value="" style="endArrow=classic;html=1;rounded=0;" parent="H2N205aNI1bhLm6Z6igX-132" edge="1">
          <mxGeometry width="50" height="50" relative="1" as="geometry">
            <mxPoint x="125" y="50" as="sourcePoint" />
            <mxPoint x="165" y="50" as="targetPoint" />
          </mxGeometry>
        </mxCell>
        <mxCell id="H2N205aNI1bhLm6Z6igX-139" value="sum" style="edgeLabel;html=1;align=center;verticalAlign=middle;resizable=0;points=[];" parent="H2N205aNI1bhLm6Z6igX-138" vertex="1" connectable="0">
          <mxGeometry x="-0.1391" relative="1" as="geometry">
            <mxPoint as="offset" />
          </mxGeometry>
        </mxCell>
        <mxCell id="H2N205aNI1bhLm6Z6igX-140" value="" style="endArrow=classic;html=1;rounded=0;" parent="H2N205aNI1bhLm6Z6igX-132" edge="1">
          <mxGeometry width="50" height="50" relative="1" as="geometry">
            <mxPoint x="125" y="110" as="sourcePoint" />
            <mxPoint x="165" y="110" as="targetPoint" />
          </mxGeometry>
        </mxCell>
        <mxCell id="H2N205aNI1bhLm6Z6igX-141" value="carry" style="edgeLabel;html=1;align=center;verticalAlign=middle;resizable=0;points=[];" parent="H2N205aNI1bhLm6Z6igX-140" vertex="1" connectable="0">
          <mxGeometry x="-0.1391" relative="1" as="geometry">
            <mxPoint as="offset" />
          </mxGeometry>
        </mxCell>
        <mxCell id="H2N205aNI1bhLm6Z6igX-142" value="" style="endArrow=classic;html=1;rounded=0;" parent="H2N205aNI1bhLm6Z6igX-132" edge="1">
          <mxGeometry width="50" height="50" relative="1" as="geometry">
            <mxPoint y="130" as="sourcePoint" />
            <mxPoint x="40" y="130" as="targetPoint" />
          </mxGeometry>
        </mxCell>
        <mxCell id="H2N205aNI1bhLm6Z6igX-143" value="c" style="edgeLabel;html=1;align=center;verticalAlign=middle;resizable=0;points=[];" parent="H2N205aNI1bhLm6Z6igX-142" vertex="1" connectable="0">
          <mxGeometry x="-0.1391" relative="1" as="geometry">
            <mxPoint as="offset" />
          </mxGeometry>
        </mxCell>
        <mxCell id="H2N205aNI1bhLm6Z6igX-144" value="" style="group" parent="1" vertex="1" connectable="0">
          <mxGeometry x="2020" y="1030" width="165" height="160" as="geometry" />
        </mxCell>
        <mxCell id="H2N205aNI1bhLm6Z6igX-145" value="FullAdder" style="shape=trapezoid;perimeter=trapezoidPerimeter;whiteSpace=wrap;html=1;fixedSize=1;direction=south;rounded=1;" parent="H2N205aNI1bhLm6Z6igX-144" vertex="1">
          <mxGeometry x="40" width="85" height="160" as="geometry" />
        </mxCell>
        <mxCell id="H2N205aNI1bhLm6Z6igX-146" value="" style="endArrow=classic;html=1;rounded=0;" parent="H2N205aNI1bhLm6Z6igX-144" edge="1">
          <mxGeometry width="50" height="50" relative="1" as="geometry">
            <mxPoint y="30" as="sourcePoint" />
            <mxPoint x="40" y="30" as="targetPoint" />
          </mxGeometry>
        </mxCell>
        <mxCell id="H2N205aNI1bhLm6Z6igX-147" value="a" style="edgeLabel;html=1;align=center;verticalAlign=middle;resizable=0;points=[];" parent="H2N205aNI1bhLm6Z6igX-146" vertex="1" connectable="0">
          <mxGeometry x="-0.1391" relative="1" as="geometry">
            <mxPoint as="offset" />
          </mxGeometry>
        </mxCell>
        <mxCell id="H2N205aNI1bhLm6Z6igX-148" value="" style="endArrow=classic;html=1;rounded=0;" parent="H2N205aNI1bhLm6Z6igX-144" edge="1">
          <mxGeometry width="50" height="50" relative="1" as="geometry">
            <mxPoint y="79.80000000000001" as="sourcePoint" />
            <mxPoint x="40" y="79.80000000000001" as="targetPoint" />
          </mxGeometry>
        </mxCell>
        <mxCell id="H2N205aNI1bhLm6Z6igX-149" value="b" style="edgeLabel;html=1;align=center;verticalAlign=middle;resizable=0;points=[];" parent="H2N205aNI1bhLm6Z6igX-148" vertex="1" connectable="0">
          <mxGeometry x="-0.1391" relative="1" as="geometry">
            <mxPoint as="offset" />
          </mxGeometry>
        </mxCell>
        <mxCell id="H2N205aNI1bhLm6Z6igX-150" value="" style="endArrow=classic;html=1;rounded=0;" parent="H2N205aNI1bhLm6Z6igX-144" edge="1">
          <mxGeometry width="50" height="50" relative="1" as="geometry">
            <mxPoint x="125" y="50" as="sourcePoint" />
            <mxPoint x="165" y="50" as="targetPoint" />
          </mxGeometry>
        </mxCell>
        <mxCell id="H2N205aNI1bhLm6Z6igX-151" value="sum" style="edgeLabel;html=1;align=center;verticalAlign=middle;resizable=0;points=[];" parent="H2N205aNI1bhLm6Z6igX-150" vertex="1" connectable="0">
          <mxGeometry x="-0.1391" relative="1" as="geometry">
            <mxPoint as="offset" />
          </mxGeometry>
        </mxCell>
        <mxCell id="H2N205aNI1bhLm6Z6igX-152" value="" style="endArrow=classic;html=1;rounded=0;" parent="H2N205aNI1bhLm6Z6igX-144" edge="1">
          <mxGeometry width="50" height="50" relative="1" as="geometry">
            <mxPoint x="125" y="110" as="sourcePoint" />
            <mxPoint x="165" y="110" as="targetPoint" />
          </mxGeometry>
        </mxCell>
        <mxCell id="H2N205aNI1bhLm6Z6igX-153" value="carry" style="edgeLabel;html=1;align=center;verticalAlign=middle;resizable=0;points=[];" parent="H2N205aNI1bhLm6Z6igX-152" vertex="1" connectable="0">
          <mxGeometry x="-0.1391" relative="1" as="geometry">
            <mxPoint as="offset" />
          </mxGeometry>
        </mxCell>
        <mxCell id="H2N205aNI1bhLm6Z6igX-154" value="" style="endArrow=classic;html=1;rounded=0;" parent="H2N205aNI1bhLm6Z6igX-144" edge="1">
          <mxGeometry width="50" height="50" relative="1" as="geometry">
            <mxPoint y="130" as="sourcePoint" />
            <mxPoint x="40" y="130" as="targetPoint" />
          </mxGeometry>
        </mxCell>
        <mxCell id="H2N205aNI1bhLm6Z6igX-155" value="c" style="edgeLabel;html=1;align=center;verticalAlign=middle;resizable=0;points=[];" parent="H2N205aNI1bhLm6Z6igX-154" vertex="1" connectable="0">
          <mxGeometry x="-0.1391" relative="1" as="geometry">
            <mxPoint as="offset" />
          </mxGeometry>
        </mxCell>
        <mxCell id="H2N205aNI1bhLm6Z6igX-156" value="" style="group" parent="1" vertex="1" connectable="0">
          <mxGeometry x="2185" y="1110" width="165" height="160" as="geometry" />
        </mxCell>
        <mxCell id="H2N205aNI1bhLm6Z6igX-157" value="FullAdder" style="shape=trapezoid;perimeter=trapezoidPerimeter;whiteSpace=wrap;html=1;fixedSize=1;direction=south;rounded=1;" parent="H2N205aNI1bhLm6Z6igX-156" vertex="1">
          <mxGeometry x="40" width="85" height="160" as="geometry" />
        </mxCell>
        <mxCell id="H2N205aNI1bhLm6Z6igX-158" value="" style="endArrow=classic;html=1;rounded=0;" parent="H2N205aNI1bhLm6Z6igX-156" edge="1">
          <mxGeometry width="50" height="50" relative="1" as="geometry">
            <mxPoint y="30" as="sourcePoint" />
            <mxPoint x="40" y="30" as="targetPoint" />
          </mxGeometry>
        </mxCell>
        <mxCell id="H2N205aNI1bhLm6Z6igX-159" value="a" style="edgeLabel;html=1;align=center;verticalAlign=middle;resizable=0;points=[];" parent="H2N205aNI1bhLm6Z6igX-158" vertex="1" connectable="0">
          <mxGeometry x="-0.1391" relative="1" as="geometry">
            <mxPoint as="offset" />
          </mxGeometry>
        </mxCell>
        <mxCell id="H2N205aNI1bhLm6Z6igX-160" value="" style="endArrow=classic;html=1;rounded=0;" parent="H2N205aNI1bhLm6Z6igX-156" edge="1">
          <mxGeometry width="50" height="50" relative="1" as="geometry">
            <mxPoint y="79.80000000000001" as="sourcePoint" />
            <mxPoint x="40" y="79.80000000000001" as="targetPoint" />
          </mxGeometry>
        </mxCell>
        <mxCell id="H2N205aNI1bhLm6Z6igX-161" value="b" style="edgeLabel;html=1;align=center;verticalAlign=middle;resizable=0;points=[];" parent="H2N205aNI1bhLm6Z6igX-160" vertex="1" connectable="0">
          <mxGeometry x="-0.1391" relative="1" as="geometry">
            <mxPoint as="offset" />
          </mxGeometry>
        </mxCell>
        <mxCell id="H2N205aNI1bhLm6Z6igX-162" value="" style="endArrow=classic;html=1;rounded=0;" parent="H2N205aNI1bhLm6Z6igX-156" edge="1">
          <mxGeometry width="50" height="50" relative="1" as="geometry">
            <mxPoint x="125" y="50" as="sourcePoint" />
            <mxPoint x="165" y="50" as="targetPoint" />
          </mxGeometry>
        </mxCell>
        <mxCell id="H2N205aNI1bhLm6Z6igX-163" value="sum" style="edgeLabel;html=1;align=center;verticalAlign=middle;resizable=0;points=[];" parent="H2N205aNI1bhLm6Z6igX-162" vertex="1" connectable="0">
          <mxGeometry x="-0.1391" relative="1" as="geometry">
            <mxPoint as="offset" />
          </mxGeometry>
        </mxCell>
        <mxCell id="H2N205aNI1bhLm6Z6igX-164" value="" style="endArrow=classic;html=1;rounded=0;" parent="H2N205aNI1bhLm6Z6igX-156" edge="1">
          <mxGeometry width="50" height="50" relative="1" as="geometry">
            <mxPoint x="125" y="110" as="sourcePoint" />
            <mxPoint x="165" y="110" as="targetPoint" />
          </mxGeometry>
        </mxCell>
        <mxCell id="H2N205aNI1bhLm6Z6igX-165" value="carry" style="edgeLabel;html=1;align=center;verticalAlign=middle;resizable=0;points=[];" parent="H2N205aNI1bhLm6Z6igX-164" vertex="1" connectable="0">
          <mxGeometry x="-0.1391" relative="1" as="geometry">
            <mxPoint as="offset" />
          </mxGeometry>
        </mxCell>
        <mxCell id="H2N205aNI1bhLm6Z6igX-166" value="" style="endArrow=classic;html=1;rounded=0;" parent="H2N205aNI1bhLm6Z6igX-156" edge="1">
          <mxGeometry width="50" height="50" relative="1" as="geometry">
            <mxPoint y="130" as="sourcePoint" />
            <mxPoint x="40" y="130" as="targetPoint" />
          </mxGeometry>
        </mxCell>
        <mxCell id="H2N205aNI1bhLm6Z6igX-167" value="c" style="edgeLabel;html=1;align=center;verticalAlign=middle;resizable=0;points=[];" parent="H2N205aNI1bhLm6Z6igX-166" vertex="1" connectable="0">
          <mxGeometry x="-0.1391" relative="1" as="geometry">
            <mxPoint as="offset" />
          </mxGeometry>
        </mxCell>
        <mxCell id="H2N205aNI1bhLm6Z6igX-168" value="" style="group" parent="1" vertex="1" connectable="0">
          <mxGeometry x="2350" y="1190" width="165" height="160" as="geometry" />
        </mxCell>
        <mxCell id="H2N205aNI1bhLm6Z6igX-169" value="FullAdder" style="shape=trapezoid;perimeter=trapezoidPerimeter;whiteSpace=wrap;html=1;fixedSize=1;direction=south;rounded=1;" parent="H2N205aNI1bhLm6Z6igX-168" vertex="1">
          <mxGeometry x="40" width="85" height="160" as="geometry" />
        </mxCell>
        <mxCell id="H2N205aNI1bhLm6Z6igX-170" value="" style="endArrow=classic;html=1;rounded=0;" parent="H2N205aNI1bhLm6Z6igX-168" edge="1">
          <mxGeometry width="50" height="50" relative="1" as="geometry">
            <mxPoint y="30" as="sourcePoint" />
            <mxPoint x="40" y="30" as="targetPoint" />
          </mxGeometry>
        </mxCell>
        <mxCell id="H2N205aNI1bhLm6Z6igX-171" value="a" style="edgeLabel;html=1;align=center;verticalAlign=middle;resizable=0;points=[];" parent="H2N205aNI1bhLm6Z6igX-170" vertex="1" connectable="0">
          <mxGeometry x="-0.1391" relative="1" as="geometry">
            <mxPoint as="offset" />
          </mxGeometry>
        </mxCell>
        <mxCell id="H2N205aNI1bhLm6Z6igX-172" value="" style="endArrow=classic;html=1;rounded=0;" parent="H2N205aNI1bhLm6Z6igX-168" edge="1">
          <mxGeometry width="50" height="50" relative="1" as="geometry">
            <mxPoint y="79.80000000000001" as="sourcePoint" />
            <mxPoint x="40" y="79.80000000000001" as="targetPoint" />
          </mxGeometry>
        </mxCell>
        <mxCell id="H2N205aNI1bhLm6Z6igX-173" value="b" style="edgeLabel;html=1;align=center;verticalAlign=middle;resizable=0;points=[];" parent="H2N205aNI1bhLm6Z6igX-172" vertex="1" connectable="0">
          <mxGeometry x="-0.1391" relative="1" as="geometry">
            <mxPoint as="offset" />
          </mxGeometry>
        </mxCell>
        <mxCell id="H2N205aNI1bhLm6Z6igX-174" value="" style="endArrow=classic;html=1;rounded=0;" parent="H2N205aNI1bhLm6Z6igX-168" edge="1">
          <mxGeometry width="50" height="50" relative="1" as="geometry">
            <mxPoint x="125" y="50" as="sourcePoint" />
            <mxPoint x="165" y="50" as="targetPoint" />
          </mxGeometry>
        </mxCell>
        <mxCell id="H2N205aNI1bhLm6Z6igX-175" value="sum" style="edgeLabel;html=1;align=center;verticalAlign=middle;resizable=0;points=[];" parent="H2N205aNI1bhLm6Z6igX-174" vertex="1" connectable="0">
          <mxGeometry x="-0.1391" relative="1" as="geometry">
            <mxPoint as="offset" />
          </mxGeometry>
        </mxCell>
        <mxCell id="H2N205aNI1bhLm6Z6igX-176" value="" style="endArrow=classic;html=1;rounded=0;" parent="H2N205aNI1bhLm6Z6igX-168" edge="1">
          <mxGeometry width="50" height="50" relative="1" as="geometry">
            <mxPoint x="125" y="110" as="sourcePoint" />
            <mxPoint x="165" y="110" as="targetPoint" />
          </mxGeometry>
        </mxCell>
        <mxCell id="H2N205aNI1bhLm6Z6igX-177" value="carry" style="edgeLabel;html=1;align=center;verticalAlign=middle;resizable=0;points=[];" parent="H2N205aNI1bhLm6Z6igX-176" vertex="1" connectable="0">
          <mxGeometry x="-0.1391" relative="1" as="geometry">
            <mxPoint as="offset" />
          </mxGeometry>
        </mxCell>
        <mxCell id="H2N205aNI1bhLm6Z6igX-178" value="" style="endArrow=classic;html=1;rounded=0;" parent="H2N205aNI1bhLm6Z6igX-168" edge="1">
          <mxGeometry width="50" height="50" relative="1" as="geometry">
            <mxPoint y="130" as="sourcePoint" />
            <mxPoint x="40" y="130" as="targetPoint" />
          </mxGeometry>
        </mxCell>
        <mxCell id="H2N205aNI1bhLm6Z6igX-179" value="c" style="edgeLabel;html=1;align=center;verticalAlign=middle;resizable=0;points=[];" parent="H2N205aNI1bhLm6Z6igX-178" vertex="1" connectable="0">
          <mxGeometry x="-0.1391" relative="1" as="geometry">
            <mxPoint as="offset" />
          </mxGeometry>
        </mxCell>
        <mxCell id="H2N205aNI1bhLm6Z6igX-180" value="" style="group" parent="1" vertex="1" connectable="0">
          <mxGeometry x="2510" y="1270" width="165" height="160" as="geometry" />
        </mxCell>
        <mxCell id="H2N205aNI1bhLm6Z6igX-181" value="FullAdder" style="shape=trapezoid;perimeter=trapezoidPerimeter;whiteSpace=wrap;html=1;fixedSize=1;direction=south;rounded=1;" parent="H2N205aNI1bhLm6Z6igX-180" vertex="1">
          <mxGeometry x="40" width="85" height="160" as="geometry" />
        </mxCell>
        <mxCell id="H2N205aNI1bhLm6Z6igX-182" value="" style="endArrow=classic;html=1;rounded=0;" parent="H2N205aNI1bhLm6Z6igX-180" edge="1">
          <mxGeometry width="50" height="50" relative="1" as="geometry">
            <mxPoint y="30" as="sourcePoint" />
            <mxPoint x="40" y="30" as="targetPoint" />
          </mxGeometry>
        </mxCell>
        <mxCell id="H2N205aNI1bhLm6Z6igX-183" value="a" style="edgeLabel;html=1;align=center;verticalAlign=middle;resizable=0;points=[];" parent="H2N205aNI1bhLm6Z6igX-182" vertex="1" connectable="0">
          <mxGeometry x="-0.1391" relative="1" as="geometry">
            <mxPoint as="offset" />
          </mxGeometry>
        </mxCell>
        <mxCell id="H2N205aNI1bhLm6Z6igX-184" value="" style="endArrow=classic;html=1;rounded=0;" parent="H2N205aNI1bhLm6Z6igX-180" edge="1">
          <mxGeometry width="50" height="50" relative="1" as="geometry">
            <mxPoint y="79.80000000000001" as="sourcePoint" />
            <mxPoint x="40" y="79.80000000000001" as="targetPoint" />
          </mxGeometry>
        </mxCell>
        <mxCell id="H2N205aNI1bhLm6Z6igX-185" value="b" style="edgeLabel;html=1;align=center;verticalAlign=middle;resizable=0;points=[];" parent="H2N205aNI1bhLm6Z6igX-184" vertex="1" connectable="0">
          <mxGeometry x="-0.1391" relative="1" as="geometry">
            <mxPoint as="offset" />
          </mxGeometry>
        </mxCell>
        <mxCell id="H2N205aNI1bhLm6Z6igX-186" value="" style="endArrow=classic;html=1;rounded=0;" parent="H2N205aNI1bhLm6Z6igX-180" edge="1">
          <mxGeometry width="50" height="50" relative="1" as="geometry">
            <mxPoint x="125" y="50" as="sourcePoint" />
            <mxPoint x="165" y="50" as="targetPoint" />
          </mxGeometry>
        </mxCell>
        <mxCell id="H2N205aNI1bhLm6Z6igX-187" value="sum" style="edgeLabel;html=1;align=center;verticalAlign=middle;resizable=0;points=[];" parent="H2N205aNI1bhLm6Z6igX-186" vertex="1" connectable="0">
          <mxGeometry x="-0.1391" relative="1" as="geometry">
            <mxPoint as="offset" />
          </mxGeometry>
        </mxCell>
        <mxCell id="H2N205aNI1bhLm6Z6igX-188" value="" style="endArrow=classic;html=1;rounded=0;" parent="H2N205aNI1bhLm6Z6igX-180" edge="1">
          <mxGeometry width="50" height="50" relative="1" as="geometry">
            <mxPoint x="125" y="110" as="sourcePoint" />
            <mxPoint x="165" y="110" as="targetPoint" />
          </mxGeometry>
        </mxCell>
        <mxCell id="H2N205aNI1bhLm6Z6igX-189" value="carry" style="edgeLabel;html=1;align=center;verticalAlign=middle;resizable=0;points=[];" parent="H2N205aNI1bhLm6Z6igX-188" vertex="1" connectable="0">
          <mxGeometry x="-0.1391" relative="1" as="geometry">
            <mxPoint as="offset" />
          </mxGeometry>
        </mxCell>
        <mxCell id="H2N205aNI1bhLm6Z6igX-190" value="" style="endArrow=classic;html=1;rounded=0;" parent="H2N205aNI1bhLm6Z6igX-180" edge="1">
          <mxGeometry width="50" height="50" relative="1" as="geometry">
            <mxPoint y="130" as="sourcePoint" />
            <mxPoint x="40" y="130" as="targetPoint" />
          </mxGeometry>
        </mxCell>
        <mxCell id="H2N205aNI1bhLm6Z6igX-191" value="c" style="edgeLabel;html=1;align=center;verticalAlign=middle;resizable=0;points=[];" parent="H2N205aNI1bhLm6Z6igX-190" vertex="1" connectable="0">
          <mxGeometry x="-0.1391" relative="1" as="geometry">
            <mxPoint as="offset" />
          </mxGeometry>
        </mxCell>
        <mxCell id="H2N205aNI1bhLm6Z6igX-192" value="" style="group" parent="1" vertex="1" connectable="0">
          <mxGeometry x="2670" y="1350" width="165" height="160" as="geometry" />
        </mxCell>
        <mxCell id="H2N205aNI1bhLm6Z6igX-193" value="FullAdder" style="shape=trapezoid;perimeter=trapezoidPerimeter;whiteSpace=wrap;html=1;fixedSize=1;direction=south;rounded=1;" parent="H2N205aNI1bhLm6Z6igX-192" vertex="1">
          <mxGeometry x="40" width="85" height="160" as="geometry" />
        </mxCell>
        <mxCell id="H2N205aNI1bhLm6Z6igX-194" value="" style="endArrow=classic;html=1;rounded=0;" parent="H2N205aNI1bhLm6Z6igX-192" edge="1">
          <mxGeometry width="50" height="50" relative="1" as="geometry">
            <mxPoint y="30" as="sourcePoint" />
            <mxPoint x="40" y="30" as="targetPoint" />
          </mxGeometry>
        </mxCell>
        <mxCell id="H2N205aNI1bhLm6Z6igX-195" value="a" style="edgeLabel;html=1;align=center;verticalAlign=middle;resizable=0;points=[];" parent="H2N205aNI1bhLm6Z6igX-194" vertex="1" connectable="0">
          <mxGeometry x="-0.1391" relative="1" as="geometry">
            <mxPoint as="offset" />
          </mxGeometry>
        </mxCell>
        <mxCell id="H2N205aNI1bhLm6Z6igX-196" value="" style="endArrow=classic;html=1;rounded=0;" parent="H2N205aNI1bhLm6Z6igX-192" edge="1">
          <mxGeometry width="50" height="50" relative="1" as="geometry">
            <mxPoint y="79.80000000000001" as="sourcePoint" />
            <mxPoint x="40" y="79.80000000000001" as="targetPoint" />
          </mxGeometry>
        </mxCell>
        <mxCell id="H2N205aNI1bhLm6Z6igX-197" value="b" style="edgeLabel;html=1;align=center;verticalAlign=middle;resizable=0;points=[];" parent="H2N205aNI1bhLm6Z6igX-196" vertex="1" connectable="0">
          <mxGeometry x="-0.1391" relative="1" as="geometry">
            <mxPoint as="offset" />
          </mxGeometry>
        </mxCell>
        <mxCell id="H2N205aNI1bhLm6Z6igX-198" value="" style="endArrow=classic;html=1;rounded=0;" parent="H2N205aNI1bhLm6Z6igX-192" edge="1">
          <mxGeometry width="50" height="50" relative="1" as="geometry">
            <mxPoint x="125" y="50" as="sourcePoint" />
            <mxPoint x="165" y="50" as="targetPoint" />
          </mxGeometry>
        </mxCell>
        <mxCell id="H2N205aNI1bhLm6Z6igX-199" value="sum" style="edgeLabel;html=1;align=center;verticalAlign=middle;resizable=0;points=[];" parent="H2N205aNI1bhLm6Z6igX-198" vertex="1" connectable="0">
          <mxGeometry x="-0.1391" relative="1" as="geometry">
            <mxPoint as="offset" />
          </mxGeometry>
        </mxCell>
        <mxCell id="H2N205aNI1bhLm6Z6igX-200" value="" style="endArrow=classic;html=1;rounded=0;" parent="H2N205aNI1bhLm6Z6igX-192" edge="1">
          <mxGeometry width="50" height="50" relative="1" as="geometry">
            <mxPoint x="125" y="110" as="sourcePoint" />
            <mxPoint x="165" y="110" as="targetPoint" />
          </mxGeometry>
        </mxCell>
        <mxCell id="H2N205aNI1bhLm6Z6igX-201" value="carry" style="edgeLabel;html=1;align=center;verticalAlign=middle;resizable=0;points=[];" parent="H2N205aNI1bhLm6Z6igX-200" vertex="1" connectable="0">
          <mxGeometry x="-0.1391" relative="1" as="geometry">
            <mxPoint as="offset" />
          </mxGeometry>
        </mxCell>
        <mxCell id="H2N205aNI1bhLm6Z6igX-202" value="" style="endArrow=classic;html=1;rounded=0;" parent="H2N205aNI1bhLm6Z6igX-192" edge="1">
          <mxGeometry width="50" height="50" relative="1" as="geometry">
            <mxPoint y="130" as="sourcePoint" />
            <mxPoint x="40" y="130" as="targetPoint" />
          </mxGeometry>
        </mxCell>
        <mxCell id="H2N205aNI1bhLm6Z6igX-203" value="c" style="edgeLabel;html=1;align=center;verticalAlign=middle;resizable=0;points=[];" parent="H2N205aNI1bhLm6Z6igX-202" vertex="1" connectable="0">
          <mxGeometry x="-0.1391" relative="1" as="geometry">
            <mxPoint as="offset" />
          </mxGeometry>
        </mxCell>
        <mxCell id="H2N205aNI1bhLm6Z6igX-204" value="" style="group" parent="1" vertex="1" connectable="0">
          <mxGeometry x="2835" y="1430" width="165" height="160" as="geometry" />
        </mxCell>
        <mxCell id="H2N205aNI1bhLm6Z6igX-205" value="FullAdder" style="shape=trapezoid;perimeter=trapezoidPerimeter;whiteSpace=wrap;html=1;fixedSize=1;direction=south;rounded=1;" parent="H2N205aNI1bhLm6Z6igX-204" vertex="1">
          <mxGeometry x="40" width="85" height="160" as="geometry" />
        </mxCell>
        <mxCell id="H2N205aNI1bhLm6Z6igX-206" value="" style="endArrow=classic;html=1;rounded=0;" parent="H2N205aNI1bhLm6Z6igX-204" edge="1">
          <mxGeometry width="50" height="50" relative="1" as="geometry">
            <mxPoint y="30" as="sourcePoint" />
            <mxPoint x="40" y="30" as="targetPoint" />
          </mxGeometry>
        </mxCell>
        <mxCell id="H2N205aNI1bhLm6Z6igX-207" value="a" style="edgeLabel;html=1;align=center;verticalAlign=middle;resizable=0;points=[];" parent="H2N205aNI1bhLm6Z6igX-206" vertex="1" connectable="0">
          <mxGeometry x="-0.1391" relative="1" as="geometry">
            <mxPoint as="offset" />
          </mxGeometry>
        </mxCell>
        <mxCell id="H2N205aNI1bhLm6Z6igX-208" value="" style="endArrow=classic;html=1;rounded=0;" parent="H2N205aNI1bhLm6Z6igX-204" edge="1">
          <mxGeometry width="50" height="50" relative="1" as="geometry">
            <mxPoint y="79.80000000000001" as="sourcePoint" />
            <mxPoint x="40" y="79.80000000000001" as="targetPoint" />
          </mxGeometry>
        </mxCell>
        <mxCell id="H2N205aNI1bhLm6Z6igX-209" value="b" style="edgeLabel;html=1;align=center;verticalAlign=middle;resizable=0;points=[];" parent="H2N205aNI1bhLm6Z6igX-208" vertex="1" connectable="0">
          <mxGeometry x="-0.1391" relative="1" as="geometry">
            <mxPoint as="offset" />
          </mxGeometry>
        </mxCell>
        <mxCell id="H2N205aNI1bhLm6Z6igX-210" value="" style="endArrow=classic;html=1;rounded=0;" parent="H2N205aNI1bhLm6Z6igX-204" edge="1">
          <mxGeometry width="50" height="50" relative="1" as="geometry">
            <mxPoint x="125" y="50" as="sourcePoint" />
            <mxPoint x="165" y="50" as="targetPoint" />
          </mxGeometry>
        </mxCell>
        <mxCell id="H2N205aNI1bhLm6Z6igX-211" value="sum" style="edgeLabel;html=1;align=center;verticalAlign=middle;resizable=0;points=[];" parent="H2N205aNI1bhLm6Z6igX-210" vertex="1" connectable="0">
          <mxGeometry x="-0.1391" relative="1" as="geometry">
            <mxPoint as="offset" />
          </mxGeometry>
        </mxCell>
        <mxCell id="H2N205aNI1bhLm6Z6igX-212" value="" style="endArrow=classic;html=1;rounded=0;" parent="H2N205aNI1bhLm6Z6igX-204" edge="1">
          <mxGeometry width="50" height="50" relative="1" as="geometry">
            <mxPoint x="125" y="110" as="sourcePoint" />
            <mxPoint x="165" y="110" as="targetPoint" />
          </mxGeometry>
        </mxCell>
        <mxCell id="H2N205aNI1bhLm6Z6igX-213" value="carry" style="edgeLabel;html=1;align=center;verticalAlign=middle;resizable=0;points=[];" parent="H2N205aNI1bhLm6Z6igX-212" vertex="1" connectable="0">
          <mxGeometry x="-0.1391" relative="1" as="geometry">
            <mxPoint as="offset" />
          </mxGeometry>
        </mxCell>
        <mxCell id="H2N205aNI1bhLm6Z6igX-214" value="" style="endArrow=classic;html=1;rounded=0;" parent="H2N205aNI1bhLm6Z6igX-204" edge="1">
          <mxGeometry width="50" height="50" relative="1" as="geometry">
            <mxPoint y="130" as="sourcePoint" />
            <mxPoint x="40" y="130" as="targetPoint" />
          </mxGeometry>
        </mxCell>
        <mxCell id="H2N205aNI1bhLm6Z6igX-215" value="c" style="edgeLabel;html=1;align=center;verticalAlign=middle;resizable=0;points=[];" parent="H2N205aNI1bhLm6Z6igX-214" vertex="1" connectable="0">
          <mxGeometry x="-0.1391" relative="1" as="geometry">
            <mxPoint as="offset" />
          </mxGeometry>
        </mxCell>
        <mxCell id="H2N205aNI1bhLm6Z6igX-216" value="" style="endArrow=classic;html=1;rounded=0;" parent="1" edge="1">
          <mxGeometry width="50" height="50" relative="1" as="geometry">
            <mxPoint x="240" y="390" as="sourcePoint" />
            <mxPoint x="320" y="390" as="targetPoint" />
          </mxGeometry>
        </mxCell>
        <mxCell id="H2N205aNI1bhLm6Z6igX-217" value="a[1]" style="edgeLabel;html=1;align=center;verticalAlign=middle;resizable=0;points=[];fontSize=16;" parent="H2N205aNI1bhLm6Z6igX-216" vertex="1" connectable="0">
          <mxGeometry x="-0.0164" relative="1" as="geometry">
            <mxPoint as="offset" />
          </mxGeometry>
        </mxCell>
        <mxCell id="H2N205aNI1bhLm6Z6igX-218" value="" style="endArrow=classic;html=1;rounded=0;" parent="1" edge="1">
          <mxGeometry width="50" height="50" relative="1" as="geometry">
            <mxPoint x="240" y="440" as="sourcePoint" />
            <mxPoint x="320" y="440" as="targetPoint" />
          </mxGeometry>
        </mxCell>
        <mxCell id="H2N205aNI1bhLm6Z6igX-219" value="b[1]" style="edgeLabel;html=1;align=center;verticalAlign=middle;resizable=0;points=[];fontSize=16;" parent="H2N205aNI1bhLm6Z6igX-218" vertex="1" connectable="0">
          <mxGeometry x="-0.0164" relative="1" as="geometry">
            <mxPoint as="offset" />
          </mxGeometry>
        </mxCell>
        <mxCell id="H2N205aNI1bhLm6Z6igX-222" value="" style="endArrow=classic;html=1;rounded=0;" parent="1" edge="1">
          <mxGeometry width="50" height="50" relative="1" as="geometry">
            <mxPoint x="240" y="470" as="sourcePoint" />
            <mxPoint x="320" y="470" as="targetPoint" />
          </mxGeometry>
        </mxCell>
        <mxCell id="H2N205aNI1bhLm6Z6igX-223" value="a[2]" style="edgeLabel;html=1;align=center;verticalAlign=middle;resizable=0;points=[];fontSize=16;" parent="H2N205aNI1bhLm6Z6igX-222" vertex="1" connectable="0">
          <mxGeometry x="-0.0164" relative="1" as="geometry">
            <mxPoint as="offset" />
          </mxGeometry>
        </mxCell>
        <mxCell id="H2N205aNI1bhLm6Z6igX-224" value="" style="endArrow=classic;html=1;rounded=0;" parent="1" edge="1">
          <mxGeometry width="50" height="50" relative="1" as="geometry">
            <mxPoint x="240" y="520" as="sourcePoint" />
            <mxPoint x="320" y="520" as="targetPoint" />
          </mxGeometry>
        </mxCell>
        <mxCell id="H2N205aNI1bhLm6Z6igX-225" value="b[2]" style="edgeLabel;html=1;align=center;verticalAlign=middle;resizable=0;points=[];fontSize=16;" parent="H2N205aNI1bhLm6Z6igX-224" vertex="1" connectable="0">
          <mxGeometry x="-0.0164" relative="1" as="geometry">
            <mxPoint as="offset" />
          </mxGeometry>
        </mxCell>
        <mxCell id="H2N205aNI1bhLm6Z6igX-226" value="" style="endArrow=classic;html=1;rounded=0;" parent="1" edge="1">
          <mxGeometry width="50" height="50" relative="1" as="geometry">
            <mxPoint x="240" y="550" as="sourcePoint" />
            <mxPoint x="320" y="550" as="targetPoint" />
          </mxGeometry>
        </mxCell>
        <mxCell id="H2N205aNI1bhLm6Z6igX-227" value="a[3]" style="edgeLabel;html=1;align=center;verticalAlign=middle;resizable=0;points=[];fontSize=16;" parent="H2N205aNI1bhLm6Z6igX-226" vertex="1" connectable="0">
          <mxGeometry x="-0.0164" relative="1" as="geometry">
            <mxPoint as="offset" />
          </mxGeometry>
        </mxCell>
        <mxCell id="H2N205aNI1bhLm6Z6igX-228" value="" style="endArrow=classic;html=1;rounded=0;" parent="1" edge="1">
          <mxGeometry width="50" height="50" relative="1" as="geometry">
            <mxPoint x="240" y="600" as="sourcePoint" />
            <mxPoint x="320" y="600" as="targetPoint" />
          </mxGeometry>
        </mxCell>
        <mxCell id="H2N205aNI1bhLm6Z6igX-229" value="b[3]" style="edgeLabel;html=1;align=center;verticalAlign=middle;resizable=0;points=[];fontSize=16;" parent="H2N205aNI1bhLm6Z6igX-228" vertex="1" connectable="0">
          <mxGeometry x="-0.0164" relative="1" as="geometry">
            <mxPoint as="offset" />
          </mxGeometry>
        </mxCell>
        <mxCell id="H2N205aNI1bhLm6Z6igX-230" value="" style="endArrow=classic;html=1;rounded=0;" parent="1" edge="1">
          <mxGeometry width="50" height="50" relative="1" as="geometry">
            <mxPoint x="240" y="630" as="sourcePoint" />
            <mxPoint x="320" y="630" as="targetPoint" />
          </mxGeometry>
        </mxCell>
        <mxCell id="H2N205aNI1bhLm6Z6igX-231" value="a[4]" style="edgeLabel;html=1;align=center;verticalAlign=middle;resizable=0;points=[];fontSize=16;" parent="H2N205aNI1bhLm6Z6igX-230" vertex="1" connectable="0">
          <mxGeometry x="-0.0164" relative="1" as="geometry">
            <mxPoint as="offset" />
          </mxGeometry>
        </mxCell>
        <mxCell id="H2N205aNI1bhLm6Z6igX-232" value="" style="endArrow=classic;html=1;rounded=0;" parent="1" edge="1">
          <mxGeometry width="50" height="50" relative="1" as="geometry">
            <mxPoint x="240" y="680" as="sourcePoint" />
            <mxPoint x="320" y="680" as="targetPoint" />
          </mxGeometry>
        </mxCell>
        <mxCell id="H2N205aNI1bhLm6Z6igX-233" value="b[4]" style="edgeLabel;html=1;align=center;verticalAlign=middle;resizable=0;points=[];fontSize=16;" parent="H2N205aNI1bhLm6Z6igX-232" vertex="1" connectable="0">
          <mxGeometry x="-0.0164" relative="1" as="geometry">
            <mxPoint as="offset" />
          </mxGeometry>
        </mxCell>
        <mxCell id="H2N205aNI1bhLm6Z6igX-234" value="" style="endArrow=classic;html=1;rounded=0;" parent="1" edge="1">
          <mxGeometry width="50" height="50" relative="1" as="geometry">
            <mxPoint x="240" y="710" as="sourcePoint" />
            <mxPoint x="320" y="710" as="targetPoint" />
          </mxGeometry>
        </mxCell>
        <mxCell id="H2N205aNI1bhLm6Z6igX-235" value="a[5]" style="edgeLabel;html=1;align=center;verticalAlign=middle;resizable=0;points=[];fontSize=16;" parent="H2N205aNI1bhLm6Z6igX-234" vertex="1" connectable="0">
          <mxGeometry x="-0.0164" relative="1" as="geometry">
            <mxPoint as="offset" />
          </mxGeometry>
        </mxCell>
        <mxCell id="H2N205aNI1bhLm6Z6igX-236" value="" style="endArrow=classic;html=1;rounded=0;" parent="1" edge="1">
          <mxGeometry width="50" height="50" relative="1" as="geometry">
            <mxPoint x="240" y="760" as="sourcePoint" />
            <mxPoint x="320" y="760" as="targetPoint" />
          </mxGeometry>
        </mxCell>
        <mxCell id="H2N205aNI1bhLm6Z6igX-237" value="b[5]" style="edgeLabel;html=1;align=center;verticalAlign=middle;resizable=0;points=[];fontSize=16;" parent="H2N205aNI1bhLm6Z6igX-236" vertex="1" connectable="0">
          <mxGeometry x="-0.0164" relative="1" as="geometry">
            <mxPoint as="offset" />
          </mxGeometry>
        </mxCell>
        <mxCell id="H2N205aNI1bhLm6Z6igX-238" value="" style="endArrow=classic;html=1;rounded=0;" parent="1" edge="1">
          <mxGeometry width="50" height="50" relative="1" as="geometry">
            <mxPoint x="240" y="790" as="sourcePoint" />
            <mxPoint x="320" y="790" as="targetPoint" />
          </mxGeometry>
        </mxCell>
        <mxCell id="H2N205aNI1bhLm6Z6igX-239" value="a[6]" style="edgeLabel;html=1;align=center;verticalAlign=middle;resizable=0;points=[];fontSize=16;" parent="H2N205aNI1bhLm6Z6igX-238" vertex="1" connectable="0">
          <mxGeometry x="-0.0164" relative="1" as="geometry">
            <mxPoint as="offset" />
          </mxGeometry>
        </mxCell>
        <mxCell id="H2N205aNI1bhLm6Z6igX-240" value="" style="endArrow=classic;html=1;rounded=0;" parent="1" edge="1">
          <mxGeometry width="50" height="50" relative="1" as="geometry">
            <mxPoint x="240" y="840" as="sourcePoint" />
            <mxPoint x="320" y="840" as="targetPoint" />
          </mxGeometry>
        </mxCell>
        <mxCell id="H2N205aNI1bhLm6Z6igX-241" value="b[6]" style="edgeLabel;html=1;align=center;verticalAlign=middle;resizable=0;points=[];fontSize=16;" parent="H2N205aNI1bhLm6Z6igX-240" vertex="1" connectable="0">
          <mxGeometry x="-0.0164" relative="1" as="geometry">
            <mxPoint as="offset" />
          </mxGeometry>
        </mxCell>
        <mxCell id="H2N205aNI1bhLm6Z6igX-242" value="" style="endArrow=classic;html=1;rounded=0;" parent="1" edge="1">
          <mxGeometry width="50" height="50" relative="1" as="geometry">
            <mxPoint x="240" y="870" as="sourcePoint" />
            <mxPoint x="320" y="870" as="targetPoint" />
          </mxGeometry>
        </mxCell>
        <mxCell id="H2N205aNI1bhLm6Z6igX-243" value="a[7]" style="edgeLabel;html=1;align=center;verticalAlign=middle;resizable=0;points=[];fontSize=16;" parent="H2N205aNI1bhLm6Z6igX-242" vertex="1" connectable="0">
          <mxGeometry x="-0.0164" relative="1" as="geometry">
            <mxPoint as="offset" />
          </mxGeometry>
        </mxCell>
        <mxCell id="H2N205aNI1bhLm6Z6igX-244" value="" style="endArrow=classic;html=1;rounded=0;" parent="1" edge="1">
          <mxGeometry width="50" height="50" relative="1" as="geometry">
            <mxPoint x="240" y="920" as="sourcePoint" />
            <mxPoint x="320" y="920" as="targetPoint" />
          </mxGeometry>
        </mxCell>
        <mxCell id="H2N205aNI1bhLm6Z6igX-245" value="b[7]" style="edgeLabel;html=1;align=center;verticalAlign=middle;resizable=0;points=[];fontSize=16;" parent="H2N205aNI1bhLm6Z6igX-244" vertex="1" connectable="0">
          <mxGeometry x="-0.0164" relative="1" as="geometry">
            <mxPoint as="offset" />
          </mxGeometry>
        </mxCell>
        <mxCell id="H2N205aNI1bhLm6Z6igX-246" value="" style="endArrow=classic;html=1;rounded=0;" parent="1" edge="1">
          <mxGeometry width="50" height="50" relative="1" as="geometry">
            <mxPoint x="240" y="950" as="sourcePoint" />
            <mxPoint x="320" y="950" as="targetPoint" />
          </mxGeometry>
        </mxCell>
        <mxCell id="H2N205aNI1bhLm6Z6igX-247" value="a[8]" style="edgeLabel;html=1;align=center;verticalAlign=middle;resizable=0;points=[];fontSize=16;" parent="H2N205aNI1bhLm6Z6igX-246" vertex="1" connectable="0">
          <mxGeometry x="-0.0164" relative="1" as="geometry">
            <mxPoint as="offset" />
          </mxGeometry>
        </mxCell>
        <mxCell id="H2N205aNI1bhLm6Z6igX-248" value="" style="endArrow=classic;html=1;rounded=0;" parent="1" edge="1">
          <mxGeometry width="50" height="50" relative="1" as="geometry">
            <mxPoint x="240" y="1000" as="sourcePoint" />
            <mxPoint x="320" y="1000" as="targetPoint" />
          </mxGeometry>
        </mxCell>
        <mxCell id="H2N205aNI1bhLm6Z6igX-249" value="b[8]" style="edgeLabel;html=1;align=center;verticalAlign=middle;resizable=0;points=[];fontSize=16;" parent="H2N205aNI1bhLm6Z6igX-248" vertex="1" connectable="0">
          <mxGeometry x="-0.0164" relative="1" as="geometry">
            <mxPoint as="offset" />
          </mxGeometry>
        </mxCell>
        <mxCell id="H2N205aNI1bhLm6Z6igX-250" value="" style="endArrow=classic;html=1;rounded=0;" parent="1" edge="1">
          <mxGeometry width="50" height="50" relative="1" as="geometry">
            <mxPoint x="240" y="1030" as="sourcePoint" />
            <mxPoint x="320" y="1030" as="targetPoint" />
          </mxGeometry>
        </mxCell>
        <mxCell id="H2N205aNI1bhLm6Z6igX-251" value="a[9]" style="edgeLabel;html=1;align=center;verticalAlign=middle;resizable=0;points=[];fontSize=16;" parent="H2N205aNI1bhLm6Z6igX-250" vertex="1" connectable="0">
          <mxGeometry x="-0.0164" relative="1" as="geometry">
            <mxPoint as="offset" />
          </mxGeometry>
        </mxCell>
        <mxCell id="H2N205aNI1bhLm6Z6igX-252" value="" style="endArrow=classic;html=1;rounded=0;" parent="1" edge="1">
          <mxGeometry width="50" height="50" relative="1" as="geometry">
            <mxPoint x="240" y="1080" as="sourcePoint" />
            <mxPoint x="320" y="1080" as="targetPoint" />
          </mxGeometry>
        </mxCell>
        <mxCell id="H2N205aNI1bhLm6Z6igX-253" value="b[9]" style="edgeLabel;html=1;align=center;verticalAlign=middle;resizable=0;points=[];fontSize=16;" parent="H2N205aNI1bhLm6Z6igX-252" vertex="1" connectable="0">
          <mxGeometry x="-0.0164" relative="1" as="geometry">
            <mxPoint as="offset" />
          </mxGeometry>
        </mxCell>
        <mxCell id="H2N205aNI1bhLm6Z6igX-254" value="" style="endArrow=classic;html=1;rounded=0;" parent="1" edge="1">
          <mxGeometry width="50" height="50" relative="1" as="geometry">
            <mxPoint x="240" y="1110" as="sourcePoint" />
            <mxPoint x="320" y="1110" as="targetPoint" />
          </mxGeometry>
        </mxCell>
        <mxCell id="H2N205aNI1bhLm6Z6igX-255" value="a[10]" style="edgeLabel;html=1;align=center;verticalAlign=middle;resizable=0;points=[];fontSize=16;" parent="H2N205aNI1bhLm6Z6igX-254" vertex="1" connectable="0">
          <mxGeometry x="-0.0164" relative="1" as="geometry">
            <mxPoint as="offset" />
          </mxGeometry>
        </mxCell>
        <mxCell id="H2N205aNI1bhLm6Z6igX-256" value="" style="endArrow=classic;html=1;rounded=0;" parent="1" edge="1">
          <mxGeometry width="50" height="50" relative="1" as="geometry">
            <mxPoint x="240" y="1160" as="sourcePoint" />
            <mxPoint x="320" y="1160" as="targetPoint" />
          </mxGeometry>
        </mxCell>
        <mxCell id="H2N205aNI1bhLm6Z6igX-257" value="b[10]" style="edgeLabel;html=1;align=center;verticalAlign=middle;resizable=0;points=[];fontSize=16;" parent="H2N205aNI1bhLm6Z6igX-256" vertex="1" connectable="0">
          <mxGeometry x="-0.0164" relative="1" as="geometry">
            <mxPoint as="offset" />
          </mxGeometry>
        </mxCell>
        <mxCell id="H2N205aNI1bhLm6Z6igX-258" value="" style="endArrow=classic;html=1;rounded=0;" parent="1" edge="1">
          <mxGeometry width="50" height="50" relative="1" as="geometry">
            <mxPoint x="240" y="1190" as="sourcePoint" />
            <mxPoint x="320" y="1190" as="targetPoint" />
          </mxGeometry>
        </mxCell>
        <mxCell id="H2N205aNI1bhLm6Z6igX-259" value="a[11]" style="edgeLabel;html=1;align=center;verticalAlign=middle;resizable=0;points=[];fontSize=16;" parent="H2N205aNI1bhLm6Z6igX-258" vertex="1" connectable="0">
          <mxGeometry x="-0.0164" relative="1" as="geometry">
            <mxPoint as="offset" />
          </mxGeometry>
        </mxCell>
        <mxCell id="H2N205aNI1bhLm6Z6igX-260" value="" style="endArrow=classic;html=1;rounded=0;" parent="1" edge="1">
          <mxGeometry width="50" height="50" relative="1" as="geometry">
            <mxPoint x="240" y="1240" as="sourcePoint" />
            <mxPoint x="320" y="1240" as="targetPoint" />
          </mxGeometry>
        </mxCell>
        <mxCell id="H2N205aNI1bhLm6Z6igX-261" value="b[11]" style="edgeLabel;html=1;align=center;verticalAlign=middle;resizable=0;points=[];fontSize=16;" parent="H2N205aNI1bhLm6Z6igX-260" vertex="1" connectable="0">
          <mxGeometry x="-0.0164" relative="1" as="geometry">
            <mxPoint as="offset" />
          </mxGeometry>
        </mxCell>
        <mxCell id="H2N205aNI1bhLm6Z6igX-262" value="" style="endArrow=classic;html=1;rounded=0;" parent="1" edge="1">
          <mxGeometry width="50" height="50" relative="1" as="geometry">
            <mxPoint x="240" y="1270" as="sourcePoint" />
            <mxPoint x="320" y="1270" as="targetPoint" />
          </mxGeometry>
        </mxCell>
        <mxCell id="H2N205aNI1bhLm6Z6igX-263" value="a[12]" style="edgeLabel;html=1;align=center;verticalAlign=middle;resizable=0;points=[];fontSize=16;" parent="H2N205aNI1bhLm6Z6igX-262" vertex="1" connectable="0">
          <mxGeometry x="-0.0164" relative="1" as="geometry">
            <mxPoint as="offset" />
          </mxGeometry>
        </mxCell>
        <mxCell id="H2N205aNI1bhLm6Z6igX-264" value="" style="endArrow=classic;html=1;rounded=0;" parent="1" edge="1">
          <mxGeometry width="50" height="50" relative="1" as="geometry">
            <mxPoint x="240" y="1320" as="sourcePoint" />
            <mxPoint x="320" y="1320" as="targetPoint" />
          </mxGeometry>
        </mxCell>
        <mxCell id="H2N205aNI1bhLm6Z6igX-265" value="b[12]" style="edgeLabel;html=1;align=center;verticalAlign=middle;resizable=0;points=[];fontSize=16;" parent="H2N205aNI1bhLm6Z6igX-264" vertex="1" connectable="0">
          <mxGeometry x="-0.0164" relative="1" as="geometry">
            <mxPoint as="offset" />
          </mxGeometry>
        </mxCell>
        <mxCell id="H2N205aNI1bhLm6Z6igX-266" value="" style="endArrow=classic;html=1;rounded=0;" parent="1" edge="1">
          <mxGeometry width="50" height="50" relative="1" as="geometry">
            <mxPoint x="240" y="1350" as="sourcePoint" />
            <mxPoint x="320" y="1350" as="targetPoint" />
          </mxGeometry>
        </mxCell>
        <mxCell id="H2N205aNI1bhLm6Z6igX-267" value="a[13]" style="edgeLabel;html=1;align=center;verticalAlign=middle;resizable=0;points=[];fontSize=16;" parent="H2N205aNI1bhLm6Z6igX-266" vertex="1" connectable="0">
          <mxGeometry x="-0.0164" relative="1" as="geometry">
            <mxPoint as="offset" />
          </mxGeometry>
        </mxCell>
        <mxCell id="H2N205aNI1bhLm6Z6igX-268" value="" style="endArrow=classic;html=1;rounded=0;" parent="1" edge="1">
          <mxGeometry width="50" height="50" relative="1" as="geometry">
            <mxPoint x="240" y="1400" as="sourcePoint" />
            <mxPoint x="320" y="1400" as="targetPoint" />
          </mxGeometry>
        </mxCell>
        <mxCell id="H2N205aNI1bhLm6Z6igX-269" value="b[13]" style="edgeLabel;html=1;align=center;verticalAlign=middle;resizable=0;points=[];fontSize=16;" parent="H2N205aNI1bhLm6Z6igX-268" vertex="1" connectable="0">
          <mxGeometry x="-0.0164" relative="1" as="geometry">
            <mxPoint as="offset" />
          </mxGeometry>
        </mxCell>
        <mxCell id="H2N205aNI1bhLm6Z6igX-270" value="" style="endArrow=classic;html=1;rounded=0;" parent="1" edge="1">
          <mxGeometry width="50" height="50" relative="1" as="geometry">
            <mxPoint x="240" y="1430" as="sourcePoint" />
            <mxPoint x="320" y="1430" as="targetPoint" />
          </mxGeometry>
        </mxCell>
        <mxCell id="H2N205aNI1bhLm6Z6igX-271" value="a[14]" style="edgeLabel;html=1;align=center;verticalAlign=middle;resizable=0;points=[];fontSize=16;" parent="H2N205aNI1bhLm6Z6igX-270" vertex="1" connectable="0">
          <mxGeometry x="-0.0164" relative="1" as="geometry">
            <mxPoint as="offset" />
          </mxGeometry>
        </mxCell>
        <mxCell id="H2N205aNI1bhLm6Z6igX-272" value="" style="endArrow=classic;html=1;rounded=0;" parent="1" edge="1">
          <mxGeometry width="50" height="50" relative="1" as="geometry">
            <mxPoint x="240" y="1480" as="sourcePoint" />
            <mxPoint x="320" y="1480" as="targetPoint" />
          </mxGeometry>
        </mxCell>
        <mxCell id="H2N205aNI1bhLm6Z6igX-273" value="b[14]" style="edgeLabel;html=1;align=center;verticalAlign=middle;resizable=0;points=[];fontSize=16;" parent="H2N205aNI1bhLm6Z6igX-272" vertex="1" connectable="0">
          <mxGeometry x="-0.0164" relative="1" as="geometry">
            <mxPoint as="offset" />
          </mxGeometry>
        </mxCell>
        <mxCell id="H2N205aNI1bhLm6Z6igX-274" value="" style="endArrow=classic;html=1;rounded=0;" parent="1" edge="1">
          <mxGeometry width="50" height="50" relative="1" as="geometry">
            <mxPoint x="240" y="1510" as="sourcePoint" />
            <mxPoint x="320" y="1510" as="targetPoint" />
          </mxGeometry>
        </mxCell>
        <mxCell id="H2N205aNI1bhLm6Z6igX-275" value="a[15]" style="edgeLabel;html=1;align=center;verticalAlign=middle;resizable=0;points=[];fontSize=16;" parent="H2N205aNI1bhLm6Z6igX-274" vertex="1" connectable="0">
          <mxGeometry x="-0.0164" relative="1" as="geometry">
            <mxPoint as="offset" />
          </mxGeometry>
        </mxCell>
        <mxCell id="H2N205aNI1bhLm6Z6igX-276" value="" style="endArrow=classic;html=1;rounded=0;" parent="1" edge="1">
          <mxGeometry width="50" height="50" relative="1" as="geometry">
            <mxPoint x="240" y="1560" as="sourcePoint" />
            <mxPoint x="320" y="1560" as="targetPoint" />
          </mxGeometry>
        </mxCell>
        <mxCell id="H2N205aNI1bhLm6Z6igX-277" value="b[15]" style="edgeLabel;html=1;align=center;verticalAlign=middle;resizable=0;points=[];fontSize=16;" parent="H2N205aNI1bhLm6Z6igX-276" vertex="1" connectable="0">
          <mxGeometry x="-0.0164" relative="1" as="geometry">
            <mxPoint as="offset" />
          </mxGeometry>
        </mxCell>
        <mxCell id="scjaqPzUyUW8MiZrHzj2-1" value="" style="endArrow=classic;html=1;rounded=0;" edge="1" parent="1">
          <mxGeometry width="50" height="50" relative="1" as="geometry">
            <mxPoint x="320" y="390" as="sourcePoint" />
            <mxPoint x="530" y="390" as="targetPoint" />
          </mxGeometry>
        </mxCell>
        <mxCell id="scjaqPzUyUW8MiZrHzj2-2" value="" style="endArrow=classic;html=1;rounded=0;" edge="1" parent="1">
          <mxGeometry width="50" height="50" relative="1" as="geometry">
            <mxPoint x="320" y="440" as="sourcePoint" />
            <mxPoint x="530" y="440" as="targetPoint" />
          </mxGeometry>
        </mxCell>
        <mxCell id="scjaqPzUyUW8MiZrHzj2-3" value="" style="endArrow=classic;html=1;rounded=0;" edge="1" parent="1">
          <mxGeometry width="50" height="50" relative="1" as="geometry">
            <mxPoint x="320" y="470" as="sourcePoint" />
            <mxPoint x="700" y="470" as="targetPoint" />
          </mxGeometry>
        </mxCell>
        <mxCell id="scjaqPzUyUW8MiZrHzj2-4" value="" style="endArrow=classic;html=1;rounded=0;" edge="1" parent="1">
          <mxGeometry width="50" height="50" relative="1" as="geometry">
            <mxPoint x="320" y="520" as="sourcePoint" />
            <mxPoint x="700" y="520" as="targetPoint" />
          </mxGeometry>
        </mxCell>
        <mxCell id="scjaqPzUyUW8MiZrHzj2-5" value="" style="endArrow=classic;html=1;rounded=0;" edge="1" parent="1">
          <mxGeometry width="50" height="50" relative="1" as="geometry">
            <mxPoint x="320" y="549.13" as="sourcePoint" />
            <mxPoint x="870" y="550" as="targetPoint" />
          </mxGeometry>
        </mxCell>
        <mxCell id="scjaqPzUyUW8MiZrHzj2-6" value="" style="endArrow=classic;html=1;rounded=0;" edge="1" parent="1">
          <mxGeometry width="50" height="50" relative="1" as="geometry">
            <mxPoint x="320" y="600" as="sourcePoint" />
            <mxPoint x="870" y="600.87" as="targetPoint" />
          </mxGeometry>
        </mxCell>
        <mxCell id="scjaqPzUyUW8MiZrHzj2-7" value="" style="endArrow=classic;html=1;rounded=0;" edge="1" parent="1">
          <mxGeometry width="50" height="50" relative="1" as="geometry">
            <mxPoint x="320" y="630" as="sourcePoint" />
            <mxPoint x="1040" y="630" as="targetPoint" />
          </mxGeometry>
        </mxCell>
        <mxCell id="scjaqPzUyUW8MiZrHzj2-8" value="" style="endArrow=classic;html=1;rounded=0;" edge="1" parent="1">
          <mxGeometry width="50" height="50" relative="1" as="geometry">
            <mxPoint x="315" y="680" as="sourcePoint" />
            <mxPoint x="1035" y="680" as="targetPoint" />
          </mxGeometry>
        </mxCell>
        <mxCell id="scjaqPzUyUW8MiZrHzj2-9" value="" style="endArrow=classic;html=1;rounded=0;" edge="1" parent="1">
          <mxGeometry width="50" height="50" relative="1" as="geometry">
            <mxPoint x="315" y="710" as="sourcePoint" />
            <mxPoint x="1200" y="710" as="targetPoint" />
          </mxGeometry>
        </mxCell>
        <mxCell id="scjaqPzUyUW8MiZrHzj2-10" value="" style="endArrow=classic;html=1;rounded=0;" edge="1" parent="1">
          <mxGeometry width="50" height="50" relative="1" as="geometry">
            <mxPoint x="315" y="760" as="sourcePoint" />
            <mxPoint x="1200" y="760" as="targetPoint" />
          </mxGeometry>
        </mxCell>
        <mxCell id="scjaqPzUyUW8MiZrHzj2-11" value="" style="endArrow=classic;html=1;rounded=0;" edge="1" parent="1">
          <mxGeometry width="50" height="50" relative="1" as="geometry">
            <mxPoint x="315" y="789.38" as="sourcePoint" />
            <mxPoint x="1360" y="790" as="targetPoint" />
          </mxGeometry>
        </mxCell>
        <mxCell id="scjaqPzUyUW8MiZrHzj2-12" value="" style="endArrow=classic;html=1;rounded=0;" edge="1" parent="1">
          <mxGeometry width="50" height="50" relative="1" as="geometry">
            <mxPoint x="315" y="840" as="sourcePoint" />
            <mxPoint x="1360" y="840.62" as="targetPoint" />
          </mxGeometry>
        </mxCell>
        <mxCell id="scjaqPzUyUW8MiZrHzj2-13" value="" style="endArrow=classic;html=1;rounded=0;" edge="1" parent="1">
          <mxGeometry width="50" height="50" relative="1" as="geometry">
            <mxPoint x="320" y="868.75" as="sourcePoint" />
            <mxPoint x="1520" y="869" as="targetPoint" />
          </mxGeometry>
        </mxCell>
        <mxCell id="scjaqPzUyUW8MiZrHzj2-14" value="" style="endArrow=classic;html=1;rounded=0;" edge="1" parent="1">
          <mxGeometry width="50" height="50" relative="1" as="geometry">
            <mxPoint x="320" y="920" as="sourcePoint" />
            <mxPoint x="1520" y="920.25" as="targetPoint" />
          </mxGeometry>
        </mxCell>
        <mxCell id="scjaqPzUyUW8MiZrHzj2-15" value="" style="endArrow=classic;html=1;rounded=0;" edge="1" parent="1">
          <mxGeometry width="50" height="50" relative="1" as="geometry">
            <mxPoint x="320" y="950" as="sourcePoint" />
            <mxPoint x="1680" y="950" as="targetPoint" />
          </mxGeometry>
        </mxCell>
        <mxCell id="scjaqPzUyUW8MiZrHzj2-16" value="" style="endArrow=classic;html=1;rounded=0;" edge="1" parent="1">
          <mxGeometry width="50" height="50" relative="1" as="geometry">
            <mxPoint x="320" y="1000" as="sourcePoint" />
            <mxPoint x="1680" y="1000" as="targetPoint" />
          </mxGeometry>
        </mxCell>
        <mxCell id="scjaqPzUyUW8MiZrHzj2-17" value="" style="endArrow=classic;html=1;rounded=0;" edge="1" parent="1">
          <mxGeometry width="50" height="50" relative="1" as="geometry">
            <mxPoint x="320" y="1030" as="sourcePoint" />
            <mxPoint x="1860" y="1030" as="targetPoint" />
          </mxGeometry>
        </mxCell>
        <mxCell id="scjaqPzUyUW8MiZrHzj2-18" value="" style="endArrow=classic;html=1;rounded=0;" edge="1" parent="1">
          <mxGeometry width="50" height="50" relative="1" as="geometry">
            <mxPoint x="310" y="1080" as="sourcePoint" />
            <mxPoint x="1850" y="1080" as="targetPoint" />
          </mxGeometry>
        </mxCell>
        <mxCell id="scjaqPzUyUW8MiZrHzj2-19" value="" style="endArrow=classic;html=1;rounded=0;" edge="1" parent="1">
          <mxGeometry width="50" height="50" relative="1" as="geometry">
            <mxPoint x="320" y="1110" as="sourcePoint" />
            <mxPoint x="2030" y="1110" as="targetPoint" />
          </mxGeometry>
        </mxCell>
        <mxCell id="scjaqPzUyUW8MiZrHzj2-20" value="" style="endArrow=classic;html=1;rounded=0;" edge="1" parent="1">
          <mxGeometry width="50" height="50" relative="1" as="geometry">
            <mxPoint x="310" y="1160" as="sourcePoint" />
            <mxPoint x="2020" y="1160" as="targetPoint" />
          </mxGeometry>
        </mxCell>
        <mxCell id="scjaqPzUyUW8MiZrHzj2-21" value="" style="endArrow=classic;html=1;rounded=0;" edge="1" parent="1">
          <mxGeometry width="50" height="50" relative="1" as="geometry">
            <mxPoint x="320" y="1190" as="sourcePoint" />
            <mxPoint x="2190" y="1190" as="targetPoint" />
          </mxGeometry>
        </mxCell>
        <mxCell id="scjaqPzUyUW8MiZrHzj2-22" value="" style="endArrow=classic;html=1;rounded=0;" edge="1" parent="1">
          <mxGeometry width="50" height="50" relative="1" as="geometry">
            <mxPoint x="315" y="1240" as="sourcePoint" />
            <mxPoint x="2185" y="1240" as="targetPoint" />
          </mxGeometry>
        </mxCell>
        <mxCell id="scjaqPzUyUW8MiZrHzj2-23" value="" style="endArrow=classic;html=1;rounded=0;" edge="1" parent="1">
          <mxGeometry width="50" height="50" relative="1" as="geometry">
            <mxPoint x="315" y="1270" as="sourcePoint" />
            <mxPoint x="2360" y="1270" as="targetPoint" />
          </mxGeometry>
        </mxCell>
        <mxCell id="scjaqPzUyUW8MiZrHzj2-24" value="" style="endArrow=classic;html=1;rounded=0;" edge="1" parent="1">
          <mxGeometry width="50" height="50" relative="1" as="geometry">
            <mxPoint x="320" y="1320" as="sourcePoint" />
            <mxPoint x="2365" y="1320" as="targetPoint" />
          </mxGeometry>
        </mxCell>
        <mxCell id="scjaqPzUyUW8MiZrHzj2-25" value="" style="endArrow=classic;html=1;rounded=0;" edge="1" parent="1">
          <mxGeometry width="50" height="50" relative="1" as="geometry">
            <mxPoint x="320" y="1349.09" as="sourcePoint" />
            <mxPoint x="2520" y="1349" as="targetPoint" />
          </mxGeometry>
        </mxCell>
        <mxCell id="scjaqPzUyUW8MiZrHzj2-26" value="" style="endArrow=classic;html=1;rounded=0;" edge="1" parent="1">
          <mxGeometry width="50" height="50" relative="1" as="geometry">
            <mxPoint x="320" y="1400.09" as="sourcePoint" />
            <mxPoint x="2520" y="1400" as="targetPoint" />
          </mxGeometry>
        </mxCell>
        <mxCell id="scjaqPzUyUW8MiZrHzj2-27" value="" style="endArrow=classic;html=1;rounded=0;" edge="1" parent="1">
          <mxGeometry width="50" height="50" relative="1" as="geometry">
            <mxPoint x="320" y="1430.09" as="sourcePoint" />
            <mxPoint x="2680" y="1430" as="targetPoint" />
          </mxGeometry>
        </mxCell>
        <mxCell id="scjaqPzUyUW8MiZrHzj2-28" value="" style="endArrow=classic;html=1;rounded=0;" edge="1" parent="1">
          <mxGeometry width="50" height="50" relative="1" as="geometry">
            <mxPoint x="320" y="1480.09" as="sourcePoint" />
            <mxPoint x="2680" y="1480" as="targetPoint" />
          </mxGeometry>
        </mxCell>
        <mxCell id="scjaqPzUyUW8MiZrHzj2-29" value="" style="endArrow=classic;html=1;rounded=0;" edge="1" parent="1">
          <mxGeometry width="50" height="50" relative="1" as="geometry">
            <mxPoint x="320" y="1510.09" as="sourcePoint" />
            <mxPoint x="2840" y="1510" as="targetPoint" />
          </mxGeometry>
        </mxCell>
        <mxCell id="scjaqPzUyUW8MiZrHzj2-30" value="" style="endArrow=classic;html=1;rounded=0;" edge="1" parent="1">
          <mxGeometry width="50" height="50" relative="1" as="geometry">
            <mxPoint x="315" y="1560.09" as="sourcePoint" />
            <mxPoint x="2835" y="1560" as="targetPoint" />
          </mxGeometry>
        </mxCell>
        <mxCell id="scjaqPzUyUW8MiZrHzj2-32" value="" style="endArrow=classic;html=1;rounded=0;" edge="1" parent="1">
          <mxGeometry width="50" height="50" relative="1" as="geometry">
            <mxPoint x="320" y="350" as="sourcePoint" />
            <mxPoint x="360" y="350" as="targetPoint" />
          </mxGeometry>
        </mxCell>
        <mxCell id="scjaqPzUyUW8MiZrHzj2-33" value="" style="endArrow=classic;html=1;rounded=0;" edge="1" parent="1">
          <mxGeometry width="50" height="50" relative="1" as="geometry">
            <mxPoint x="530" y="280.0899999999999" as="sourcePoint" />
            <mxPoint x="3050" y="280" as="targetPoint" />
          </mxGeometry>
        </mxCell>
        <mxCell id="scjaqPzUyUW8MiZrHzj2-35" value="" style="endArrow=classic;html=1;rounded=0;" edge="1" parent="1">
          <mxGeometry width="50" height="50" relative="1" as="geometry">
            <mxPoint x="3050" y="360" as="sourcePoint" />
            <mxPoint x="3130" y="360" as="targetPoint" />
          </mxGeometry>
        </mxCell>
        <mxCell id="scjaqPzUyUW8MiZrHzj2-36" value="out[1]" style="edgeLabel;html=1;align=center;verticalAlign=middle;resizable=0;points=[];fontSize=16;" vertex="1" connectable="0" parent="scjaqPzUyUW8MiZrHzj2-35">
          <mxGeometry x="-0.0164" relative="1" as="geometry">
            <mxPoint as="offset" />
          </mxGeometry>
        </mxCell>
        <mxCell id="scjaqPzUyUW8MiZrHzj2-37" value="" style="endArrow=classic;html=1;rounded=0;" edge="1" parent="1">
          <mxGeometry width="50" height="50" relative="1" as="geometry">
            <mxPoint x="3050" y="440" as="sourcePoint" />
            <mxPoint x="3130" y="440" as="targetPoint" />
          </mxGeometry>
        </mxCell>
        <mxCell id="scjaqPzUyUW8MiZrHzj2-38" value="out[2]" style="edgeLabel;html=1;align=center;verticalAlign=middle;resizable=0;points=[];fontSize=16;" vertex="1" connectable="0" parent="scjaqPzUyUW8MiZrHzj2-37">
          <mxGeometry x="-0.0164" relative="1" as="geometry">
            <mxPoint as="offset" />
          </mxGeometry>
        </mxCell>
        <mxCell id="scjaqPzUyUW8MiZrHzj2-39" value="" style="endArrow=classic;html=1;rounded=0;" edge="1" parent="1">
          <mxGeometry width="50" height="50" relative="1" as="geometry">
            <mxPoint x="695" y="360.0899999999999" as="sourcePoint" />
            <mxPoint x="3055" y="360" as="targetPoint" />
          </mxGeometry>
        </mxCell>
        <mxCell id="scjaqPzUyUW8MiZrHzj2-40" value="" style="endArrow=classic;html=1;rounded=0;" edge="1" parent="1">
          <mxGeometry width="50" height="50" relative="1" as="geometry">
            <mxPoint x="3060" y="1480" as="sourcePoint" />
            <mxPoint x="3140" y="1480" as="targetPoint" />
          </mxGeometry>
        </mxCell>
        <mxCell id="scjaqPzUyUW8MiZrHzj2-41" value="out[15]" style="edgeLabel;html=1;align=center;verticalAlign=middle;resizable=0;points=[];fontSize=16;" vertex="1" connectable="0" parent="scjaqPzUyUW8MiZrHzj2-40">
          <mxGeometry x="-0.0164" relative="1" as="geometry">
            <mxPoint as="offset" />
          </mxGeometry>
        </mxCell>
        <mxCell id="scjaqPzUyUW8MiZrHzj2-42" value="" style="endArrow=classic;html=1;rounded=0;" edge="1" parent="1">
          <mxGeometry width="50" height="50" relative="1" as="geometry">
            <mxPoint x="3000" y="1480" as="sourcePoint" />
            <mxPoint x="3060" y="1480" as="targetPoint" />
          </mxGeometry>
        </mxCell>
        <mxCell id="scjaqPzUyUW8MiZrHzj2-43" value="" style="endArrow=classic;html=1;rounded=0;" edge="1" parent="1">
          <mxGeometry width="50" height="50" relative="1" as="geometry">
            <mxPoint x="3050" y="520" as="sourcePoint" />
            <mxPoint x="3130" y="520" as="targetPoint" />
          </mxGeometry>
        </mxCell>
        <mxCell id="scjaqPzUyUW8MiZrHzj2-44" value="out[3]" style="edgeLabel;html=1;align=center;verticalAlign=middle;resizable=0;points=[];fontSize=16;" vertex="1" connectable="0" parent="scjaqPzUyUW8MiZrHzj2-43">
          <mxGeometry x="-0.0164" relative="1" as="geometry">
            <mxPoint as="offset" />
          </mxGeometry>
        </mxCell>
        <mxCell id="scjaqPzUyUW8MiZrHzj2-46" value="" style="endArrow=classic;html=1;rounded=0;" edge="1" parent="1">
          <mxGeometry width="50" height="50" relative="1" as="geometry">
            <mxPoint x="865" y="440.0899999999999" as="sourcePoint" />
            <mxPoint x="3065" y="440" as="targetPoint" />
          </mxGeometry>
        </mxCell>
        <mxCell id="scjaqPzUyUW8MiZrHzj2-48" value="" style="endArrow=classic;html=1;rounded=0;" edge="1" parent="1">
          <mxGeometry width="50" height="50" relative="1" as="geometry">
            <mxPoint x="1035" y="520" as="sourcePoint" />
            <mxPoint x="3060" y="520" as="targetPoint" />
          </mxGeometry>
        </mxCell>
        <mxCell id="scjaqPzUyUW8MiZrHzj2-49" value="" style="endArrow=classic;html=1;rounded=0;" edge="1" parent="1">
          <mxGeometry width="50" height="50" relative="1" as="geometry">
            <mxPoint x="1200" y="600" as="sourcePoint" />
            <mxPoint x="3060" y="600" as="targetPoint" />
          </mxGeometry>
        </mxCell>
        <mxCell id="scjaqPzUyUW8MiZrHzj2-50" value="" style="endArrow=classic;html=1;rounded=0;" edge="1" parent="1">
          <mxGeometry width="50" height="50" relative="1" as="geometry">
            <mxPoint x="3060" y="600" as="sourcePoint" />
            <mxPoint x="3140" y="600" as="targetPoint" />
          </mxGeometry>
        </mxCell>
        <mxCell id="scjaqPzUyUW8MiZrHzj2-51" value="out[4]" style="edgeLabel;html=1;align=center;verticalAlign=middle;resizable=0;points=[];fontSize=16;" vertex="1" connectable="0" parent="scjaqPzUyUW8MiZrHzj2-50">
          <mxGeometry x="-0.0164" relative="1" as="geometry">
            <mxPoint as="offset" />
          </mxGeometry>
        </mxCell>
        <mxCell id="scjaqPzUyUW8MiZrHzj2-52" value="" style="endArrow=classic;html=1;rounded=0;" edge="1" parent="1">
          <mxGeometry width="50" height="50" relative="1" as="geometry">
            <mxPoint x="3060" y="680" as="sourcePoint" />
            <mxPoint x="3140" y="680" as="targetPoint" />
          </mxGeometry>
        </mxCell>
        <mxCell id="scjaqPzUyUW8MiZrHzj2-53" value="out[5]" style="edgeLabel;html=1;align=center;verticalAlign=middle;resizable=0;points=[];fontSize=16;" vertex="1" connectable="0" parent="scjaqPzUyUW8MiZrHzj2-52">
          <mxGeometry x="-0.0164" relative="1" as="geometry">
            <mxPoint as="offset" />
          </mxGeometry>
        </mxCell>
        <mxCell id="scjaqPzUyUW8MiZrHzj2-54" value="" style="endArrow=classic;html=1;rounded=0;" edge="1" parent="1">
          <mxGeometry width="50" height="50" relative="1" as="geometry">
            <mxPoint x="3060" y="760" as="sourcePoint" />
            <mxPoint x="3140" y="760" as="targetPoint" />
          </mxGeometry>
        </mxCell>
        <mxCell id="scjaqPzUyUW8MiZrHzj2-55" value="out[6]" style="edgeLabel;html=1;align=center;verticalAlign=middle;resizable=0;points=[];fontSize=16;" vertex="1" connectable="0" parent="scjaqPzUyUW8MiZrHzj2-54">
          <mxGeometry x="-0.0164" relative="1" as="geometry">
            <mxPoint as="offset" />
          </mxGeometry>
        </mxCell>
        <mxCell id="scjaqPzUyUW8MiZrHzj2-56" value="" style="endArrow=classic;html=1;rounded=0;" edge="1" parent="1">
          <mxGeometry width="50" height="50" relative="1" as="geometry">
            <mxPoint x="3060" y="840" as="sourcePoint" />
            <mxPoint x="3140" y="840" as="targetPoint" />
          </mxGeometry>
        </mxCell>
        <mxCell id="scjaqPzUyUW8MiZrHzj2-57" value="out[7]" style="edgeLabel;html=1;align=center;verticalAlign=middle;resizable=0;points=[];fontSize=16;" vertex="1" connectable="0" parent="scjaqPzUyUW8MiZrHzj2-56">
          <mxGeometry x="-0.0164" relative="1" as="geometry">
            <mxPoint as="offset" />
          </mxGeometry>
        </mxCell>
        <mxCell id="scjaqPzUyUW8MiZrHzj2-58" value="" style="endArrow=classic;html=1;rounded=0;" edge="1" parent="1">
          <mxGeometry width="50" height="50" relative="1" as="geometry">
            <mxPoint x="3060" y="920" as="sourcePoint" />
            <mxPoint x="3140" y="920" as="targetPoint" />
          </mxGeometry>
        </mxCell>
        <mxCell id="scjaqPzUyUW8MiZrHzj2-59" value="out[8]" style="edgeLabel;html=1;align=center;verticalAlign=middle;resizable=0;points=[];fontSize=16;" vertex="1" connectable="0" parent="scjaqPzUyUW8MiZrHzj2-58">
          <mxGeometry x="-0.0164" relative="1" as="geometry">
            <mxPoint as="offset" />
          </mxGeometry>
        </mxCell>
        <mxCell id="scjaqPzUyUW8MiZrHzj2-60" value="" style="endArrow=classic;html=1;rounded=0;" edge="1" parent="1">
          <mxGeometry width="50" height="50" relative="1" as="geometry">
            <mxPoint x="3060" y="1000" as="sourcePoint" />
            <mxPoint x="3140" y="1000" as="targetPoint" />
          </mxGeometry>
        </mxCell>
        <mxCell id="scjaqPzUyUW8MiZrHzj2-61" value="out[9]" style="edgeLabel;html=1;align=center;verticalAlign=middle;resizable=0;points=[];fontSize=16;" vertex="1" connectable="0" parent="scjaqPzUyUW8MiZrHzj2-60">
          <mxGeometry x="-0.0164" relative="1" as="geometry">
            <mxPoint as="offset" />
          </mxGeometry>
        </mxCell>
        <mxCell id="scjaqPzUyUW8MiZrHzj2-62" value="" style="endArrow=classic;html=1;rounded=0;" edge="1" parent="1">
          <mxGeometry width="50" height="50" relative="1" as="geometry">
            <mxPoint x="3060" y="1080" as="sourcePoint" />
            <mxPoint x="3140" y="1080" as="targetPoint" />
          </mxGeometry>
        </mxCell>
        <mxCell id="scjaqPzUyUW8MiZrHzj2-63" value="out[10]" style="edgeLabel;html=1;align=center;verticalAlign=middle;resizable=0;points=[];fontSize=16;" vertex="1" connectable="0" parent="scjaqPzUyUW8MiZrHzj2-62">
          <mxGeometry x="-0.0164" relative="1" as="geometry">
            <mxPoint as="offset" />
          </mxGeometry>
        </mxCell>
        <mxCell id="scjaqPzUyUW8MiZrHzj2-64" value="" style="endArrow=classic;html=1;rounded=0;" edge="1" parent="1">
          <mxGeometry width="50" height="50" relative="1" as="geometry">
            <mxPoint x="3060" y="1160" as="sourcePoint" />
            <mxPoint x="3140" y="1160" as="targetPoint" />
          </mxGeometry>
        </mxCell>
        <mxCell id="scjaqPzUyUW8MiZrHzj2-65" value="out[11]" style="edgeLabel;html=1;align=center;verticalAlign=middle;resizable=0;points=[];fontSize=16;" vertex="1" connectable="0" parent="scjaqPzUyUW8MiZrHzj2-64">
          <mxGeometry x="-0.0164" relative="1" as="geometry">
            <mxPoint as="offset" />
          </mxGeometry>
        </mxCell>
        <mxCell id="scjaqPzUyUW8MiZrHzj2-66" value="" style="endArrow=classic;html=1;rounded=0;" edge="1" parent="1">
          <mxGeometry width="50" height="50" relative="1" as="geometry">
            <mxPoint x="3060" y="1240" as="sourcePoint" />
            <mxPoint x="3140" y="1240" as="targetPoint" />
          </mxGeometry>
        </mxCell>
        <mxCell id="scjaqPzUyUW8MiZrHzj2-67" value="out[12]" style="edgeLabel;html=1;align=center;verticalAlign=middle;resizable=0;points=[];fontSize=16;" vertex="1" connectable="0" parent="scjaqPzUyUW8MiZrHzj2-66">
          <mxGeometry x="-0.0164" relative="1" as="geometry">
            <mxPoint as="offset" />
          </mxGeometry>
        </mxCell>
        <mxCell id="scjaqPzUyUW8MiZrHzj2-68" value="" style="endArrow=classic;html=1;rounded=0;" edge="1" parent="1">
          <mxGeometry width="50" height="50" relative="1" as="geometry">
            <mxPoint x="3060" y="1320" as="sourcePoint" />
            <mxPoint x="3140" y="1320" as="targetPoint" />
          </mxGeometry>
        </mxCell>
        <mxCell id="scjaqPzUyUW8MiZrHzj2-69" value="out[13]" style="edgeLabel;html=1;align=center;verticalAlign=middle;resizable=0;points=[];fontSize=16;" vertex="1" connectable="0" parent="scjaqPzUyUW8MiZrHzj2-68">
          <mxGeometry x="-0.0164" relative="1" as="geometry">
            <mxPoint as="offset" />
          </mxGeometry>
        </mxCell>
        <mxCell id="scjaqPzUyUW8MiZrHzj2-70" value="" style="endArrow=classic;html=1;rounded=0;" edge="1" parent="1">
          <mxGeometry width="50" height="50" relative="1" as="geometry">
            <mxPoint x="3060" y="1400" as="sourcePoint" />
            <mxPoint x="3140" y="1400" as="targetPoint" />
          </mxGeometry>
        </mxCell>
        <mxCell id="scjaqPzUyUW8MiZrHzj2-71" value="out[14]" style="edgeLabel;html=1;align=center;verticalAlign=middle;resizable=0;points=[];fontSize=16;" vertex="1" connectable="0" parent="scjaqPzUyUW8MiZrHzj2-70">
          <mxGeometry x="-0.0164" relative="1" as="geometry">
            <mxPoint as="offset" />
          </mxGeometry>
        </mxCell>
        <mxCell id="scjaqPzUyUW8MiZrHzj2-72" value="" style="endArrow=classic;html=1;rounded=0;" edge="1" parent="1">
          <mxGeometry width="50" height="50" relative="1" as="geometry">
            <mxPoint x="1365" y="680" as="sourcePoint" />
            <mxPoint x="3060" y="680" as="targetPoint" />
          </mxGeometry>
        </mxCell>
        <mxCell id="scjaqPzUyUW8MiZrHzj2-73" value="" style="endArrow=classic;html=1;rounded=0;" edge="1" parent="1">
          <mxGeometry width="50" height="50" relative="1" as="geometry">
            <mxPoint x="1525" y="760" as="sourcePoint" />
            <mxPoint x="3065" y="760" as="targetPoint" />
          </mxGeometry>
        </mxCell>
        <mxCell id="scjaqPzUyUW8MiZrHzj2-75" value="" style="endArrow=classic;html=1;rounded=0;" edge="1" parent="1">
          <mxGeometry width="50" height="50" relative="1" as="geometry">
            <mxPoint x="1685" y="840" as="sourcePoint" />
            <mxPoint x="3060" y="840" as="targetPoint" />
          </mxGeometry>
        </mxCell>
        <mxCell id="scjaqPzUyUW8MiZrHzj2-76" value="" style="endArrow=classic;html=1;rounded=0;" edge="1" parent="1">
          <mxGeometry width="50" height="50" relative="1" as="geometry">
            <mxPoint x="1845" y="920" as="sourcePoint" />
            <mxPoint x="3060" y="920" as="targetPoint" />
          </mxGeometry>
        </mxCell>
        <mxCell id="scjaqPzUyUW8MiZrHzj2-77" value="" style="endArrow=classic;html=1;rounded=0;" edge="1" parent="1">
          <mxGeometry width="50" height="50" relative="1" as="geometry">
            <mxPoint x="2015" y="1000" as="sourcePoint" />
            <mxPoint x="3060" y="1000" as="targetPoint" />
          </mxGeometry>
        </mxCell>
        <mxCell id="scjaqPzUyUW8MiZrHzj2-78" value="" style="endArrow=classic;html=1;rounded=0;" edge="1" parent="1">
          <mxGeometry width="50" height="50" relative="1" as="geometry">
            <mxPoint x="2185" y="1080" as="sourcePoint" />
            <mxPoint x="3060" y="1080" as="targetPoint" />
          </mxGeometry>
        </mxCell>
        <mxCell id="scjaqPzUyUW8MiZrHzj2-79" value="" style="endArrow=classic;html=1;rounded=0;" edge="1" parent="1">
          <mxGeometry width="50" height="50" relative="1" as="geometry">
            <mxPoint x="2350" y="1160" as="sourcePoint" />
            <mxPoint x="3060" y="1160" as="targetPoint" />
          </mxGeometry>
        </mxCell>
        <mxCell id="scjaqPzUyUW8MiZrHzj2-80" value="" style="endArrow=classic;html=1;rounded=0;" edge="1" parent="1">
          <mxGeometry width="50" height="50" relative="1" as="geometry">
            <mxPoint x="2515" y="1240" as="sourcePoint" />
            <mxPoint x="3060" y="1240" as="targetPoint" />
          </mxGeometry>
        </mxCell>
        <mxCell id="scjaqPzUyUW8MiZrHzj2-81" value="" style="endArrow=classic;html=1;rounded=0;" edge="1" parent="1">
          <mxGeometry width="50" height="50" relative="1" as="geometry">
            <mxPoint x="2675" y="1320" as="sourcePoint" />
            <mxPoint x="3060" y="1320" as="targetPoint" />
          </mxGeometry>
        </mxCell>
        <mxCell id="scjaqPzUyUW8MiZrHzj2-82" value="" style="endArrow=classic;html=1;rounded=0;" edge="1" parent="1">
          <mxGeometry width="50" height="50" relative="1" as="geometry">
            <mxPoint x="2835" y="1400" as="sourcePoint" />
            <mxPoint x="3060" y="1400" as="targetPoint" />
          </mxGeometry>
        </mxCell>
        <mxCell id="scjaqPzUyUW8MiZrHzj2-83" value="" style="rounded=0;whiteSpace=wrap;html=1;fillColor=none;dashed=1;" vertex="1" parent="1">
          <mxGeometry x="320" y="160" width="2730" height="1550" as="geometry" />
        </mxCell>
        <mxCell id="scjaqPzUyUW8MiZrHzj2-84" value="Add16" style="text;html=1;align=center;verticalAlign=middle;whiteSpace=wrap;rounded=0;fontSize=30;" vertex="1" parent="1">
          <mxGeometry x="1550" y="40" width="60" height="30" as="geometry" />
        </mxCell>
      </root>
    </mxGraphModel>
  </diagram>
</mxfile>
